<?xml version="1.0" standalone="no"?><!DOCTYPE svg PUBLIC "-//W3C//DTD SVG 1.1//EN" "http://www.w3.org/Graphics/SVG/1.1/DTD/svg11.dtd" ><svg xmlns="http://www.w3.org/2000/svg"><metadata></metadata><defs><font id="Bellerose Light" horiz-adv-x="1588"><font-face font-family="Bellerose" font-weight="400" font-stretch="normal" units-per-em="2048" panose-1="0 0 0 0 0 0 0 0 0 0" ascent="1893" descent="-641" x-height="0" bbox="-416 -601 1556 1893" underline-thickness="0" underline-position="0" unicode-range="U+0000-fb02" /><missing-glyph horiz-adv-x="748" d="M68 0 l0 1365 l544 0 l0 -1365 l-544 0 ZM136 68 l408 0 l0 1229 l-408 0 l0 -1229 Z" /><glyph glyph-name=".null" unicode="" d="" /><glyph glyph-name="nonmarkingreturn" unicode="" d="" /><glyph glyph-name=".null" unicode="" d="" /><glyph glyph-name="nonmarkingreturn" unicode=" " d="" /><glyph glyph-name="exclam" unicode="!" d="M65 0 l0 121 l120 0 l0 -121 l-120 0 ZM65 244 l0 1222 l118 0 l0 -1222 l-118 0 Z" /><glyph glyph-name="dollar" unicode="$" d="M32 308 l112 33 q22 -99 99.5 -166 q77.5 -67 183.5 -78 l0 642 l-63 16 q-123 32 -199.5 132 q-76.5 100 -76.5 228 q0 144 98.5 250.5 q98.5 106.5 240.5 119.5 l0 128 l60 0 l0 -126 q91 -6 171.5 -57.5 q80.5 -51.5 126.5 -127.5 l-104 -58 q-63 112 -194 123 l0 -522 l76 -19 q140 -37 229.5 -153.5 q89.5 -116.5 89.5 -262.5 q0 -166 -113.5 -289 q-113.5 -123 -281.5 -140 l0 -214 l-60 0 l0 211 q-144 11 -253 102.5 q-109 91.5 -142 227.5 ZM207 1115 q0 -88 54 -157.5 q54 -69.5 134 -88.5 l32 -9 l0 507 q-95 -13 -157.5 -86.5 q-62.5 -73.5 -62.5 -165.5 ZM487 99 q121 13 198.5 101.5 q77.5 88.5 77.5 209.5 q0 114 -64.5 195 q-64.5 81 -166.5 106 l-45 11 l0 -623 Z" /><glyph glyph-name="ampersand" unicode="&amp;" d="M65 474 q0 155 89.5 284.5 q89.5 129.5 244.5 190.5 l-52 81 q-41 63 -41 138 q0 103 75.5 181 q75.5 78 183.5 78 q108 0 183.5 -75.5 q75.5 -75.5 75.5 -183.5 q0 -82 -43.5 -145.5 q-43.5 -63.5 -118.5 -93.5 l-89 -37 l376 -599 q63 80 97 162 l73 -97 q-39 -93 -106 -170 l119 -188 l-140 0 l-65 106 q-162 -134 -360 -134 q-140 0 -253.5 68 q-113.5 68 -181 181 q-67.5 113 -67.5 253 ZM183 474 q0 -166 114.5 -274.5 q114.5 -108.5 269.5 -108.5 q155 0 295 114 l-401 642 q-132 -52 -205 -154 q-73 -102 -73 -219 ZM425 1168 q0 -41 21 -71 l65 -101 l108 43 q86 39 86 129 q0 56 -39 98.5 q-39 42.5 -101 42.5 q-54 0 -97 -39 q-43 -39 -43 -102 Z" /><glyph glyph-name="parenleft" unicode="(" d="M65 670 q0 213 59 450.5 q59 237.5 163 464.5 l60 -31 q-196 -455 -196 -884 q0 -179 54 -384.5 q54 -205.5 138 -345.5 l-71 -48 q-54 80 -102.5 208.5 q-48.5 128.5 -76.5 275 q-28 146.5 -28 294.5 Z" /><glyph glyph-name="parenright" unicode=")" d="M2 1554 l61 31 q101 -211 161.5 -449.5 q60.5 -238.5 60.5 -465.5 q0 -220 -60.5 -434 q-60.5 -214 -146.5 -344 l-72 48 q54 88 96 210 q42 122 69 258.5 q27 136.5 27 261.5 q0 429 -196 884 Z" /><glyph glyph-name="comma" unicode="," d="M65 0 l0 119 l118 0 l0 -231 l-67 112 l-51 0 Z" /><glyph glyph-name="hyphen" unicode="-" d="M65 388 l0 119 l403 0 l0 -119 l-403 0 Z" /><glyph glyph-name="period" unicode="." d="M65 0 l0 119 l118 0 l0 -119 l-118 0 Z" /><glyph glyph-name="slash" unicode="/" d="M0 -28 l731 1524 l93 0 l-731 -1524 l-93 0 Z" /><glyph glyph-name="zero" unicode="0" d="M32 735 q0 153 58.5 293 q58.5 140 165 247 q106.5 107 245.5 164 q139 57 292 57 q209 0 384 -102.5 q175 -102.5 277 -276 q102 -173.5 102 -382.5 q0 -209 -102 -383.5 q-102 -174.5 -277 -277 q-175 -102.5 -384 -102.5 q-209 0 -382.5 102.5 q-173.5 102.5 -276 277 q-102.5 174.5 -102.5 383.5 ZM151 735 q0 -175 86 -323.5 q86 -148.5 235 -234.5 q149 -86 321 -86 q175 0 323.5 86 q148.5 86 235 235 q86.5 149 86.5 323 q0 170 -86.5 321 q-86.5 151 -235 236.5 q-148.5 85.5 -323.5 85.5 q-172 0 -321 -85.5 q-149 -85.5 -235 -236.5 q-86 -151 -86 -321 Z" /><glyph glyph-name="one" unicode="1" d="M65 0 l0 1466 l118 0 l0 -1466 l-118 0 Z" /><glyph glyph-name="two" unicode="2" d="M65 0 l556 961 q34 65 34 130 q0 112 -77.5 184 q-77.5 72 -178.5 72 q-78 0 -136 -37.5 q-58 -37.5 -93 -102.5 l-103 56 q52 97 137 150 q85 53 195 53 q160 0 267.5 -108 q107.5 -108 107.5 -267 q0 -99 -47 -183 l-458 -789 l475 0 l0 -119 l-679 0 Z" /><glyph glyph-name="three" unicode="3" d="M32 213 l102 61 q28 -50 73 -88.5 q45 -38.5 106.5 -60.5 q61.5 -22 119.5 -22 q144 0 245.5 101.5 q101.5 101.5 101.5 246.5 q0 144 -101 245.5 q-101 101.5 -246 101.5 q-95 0 -172 -46 l328 595 l-494 0 l0 119 l692 0 l-304 -552 q177 -19 296.5 -152 q119.5 -133 119.5 -311 q0 -190 -136 -328 q-136 -138 -330 -138 q-121 0 -228.5 62.5 q-107.5 62.5 -172.5 165.5 Z" /><glyph glyph-name="four" unicode="4" d="M0 459 l765 1007 l0 -1022 l216 0 l0 -118 l-216 0 l0 -326 l-118 0 l0 326 l-561 0 l-86 133 ZM138 444 l509 0 l0 671 l-509 -671 Z" /><glyph glyph-name="five" unicode="5" d="M32 194 l93 71 q106 -162 300 -162 q155 0 254 108 q99 108 99 246 q0 155 -105.5 254.5 q-105.5 99.5 -247.5 99.5 q-172 0 -276 -130 l-93 54 l0 731 l679 0 l0 -119 l-560 0 l0 -489 q114 71 250 71 q196 0 334 -138 q138 -138 138 -334 q0 -196 -140 -334 q-140 -138 -332 -138 q-121 0 -223.5 56 q-102.5 56 -169.5 153 Z" /><glyph glyph-name="six" unicode="6" d="M32 405 q0 110 54 207 l464 854 l136 0 l-360 -660 q58 19 127 20 q91 0 167 -32.5 q76 -32.5 132 -88.5 q56 -56 88.5 -132.5 q32.5 -76.5 32.5 -167.5 q0 -110 -56 -209 q-56 -99 -155 -155 q-99 -56 -209 -56 q-110 0 -209.5 56 q-99.5 56 -155.5 155 q-56 99 -56 209 ZM151 405 q0 -82 41 -151 q41 -69 110 -110 q69 -41 151 -41 q82 0 151 41 q69 41 110 110 q41 69 41 151 q0 82 -41 151 q-41 69 -110 110 q-69 41 -151 41 q-82 0 -151 -41 q-69 -41 -110 -110 q-41 -69 -41 -151 Z" /><glyph glyph-name="seven" unicode="7" d="M65 1345 l0 119 l692 0 l-513 -1464 l-125 0 l470 1345 l-524 0 Z" /><glyph glyph-name="eight" unicode="8" d="M32 418 q0 121 62 222.5 q62 101.5 163 157.5 q-157 110 -158 301 q0 155 108 261 q108 106 259 106 q99 0 184 -48.5 q85 -48.5 133.5 -133.5 q48.5 -85 48.5 -185 q0 -192 -157 -301 q103 -56 163.5 -156.5 q60.5 -100.5 60.5 -223.5 q0 -114 -58 -215.5 q-58 -101.5 -159.5 -159.5 q-101.5 -58 -215.5 -58 q-114 0 -215.5 58 q-101.5 58 -160 159.5 q-58.5 101.5 -58.5 215.5 ZM151 418 q0 -138 93.5 -226.5 q93.5 -88.5 221.5 -88.5 q93 0 165 44.5 q72 44.5 110.5 116.5 q38.5 72 38.5 154 q0 138 -93.5 226.5 q-93.5 88.5 -220.5 88.5 q-138 0 -226.5 -94 q-88.5 -94 -88.5 -221 ZM218 1099 q0 -114 77.5 -180.5 q77.5 -66.5 170.5 -66.5 q114 0 181 77.5 q67 77.5 67 169.5 q0 75 -37 132.5 q-37 57.5 -94 86.5 q-57 29 -117 29 q-75 0 -132.5 -36.5 q-57.5 -36.5 -86.5 -93.5 q-29 -57 -29 -118 Z" /><glyph glyph-name="nine" unicode="9" d="M32 1046 q0 110 56 209 q56 99 155.5 155 q99.5 56 209.5 56 q91 0 167 -32.5 q76 -32.5 132 -88.5 q56 -56 88.5 -132.5 q32.5 -76.5 32.5 -166.5 q0 -110 -54 -207 l-457 -839 l-136 0 l354 645 q-58 -19 -127 -20 q-110 0 -209.5 56 q-99.5 56 -155.5 155.5 q-56 99.5 -56 209.5 ZM151 1046 q0 -82 41 -151 q41 -69 110 -110 q69 -41 151 -41 q82 0 151 41 q69 41 110 110 q41 69 41 151 q0 82 -41 150.5 q-41 68.5 -110 109.5 q-69 41 -151 41 q-82 0 -151 -41 q-69 -41 -110 -110 q-41 -69 -41 -150 Z" /><glyph glyph-name="colon" unicode=":" d="M65 0 l0 119 l118 0 l0 -119 l-118 0 ZM65 763 l0 119 l118 0 l0 -119 l-118 0 Z" /><glyph glyph-name="semicolon" unicode=";" d="M65 0 l0 119 l118 0 l0 -231 l-67 112 l-51 0 ZM65 763 l0 119 l118 0 l0 -119 l-118 0 Z" /><glyph glyph-name="question" unicode="?" d="M32 1240 q45 101 140 163.5 q95 62.5 207 62.5 q157 0 267.5 -110 q110.5 -110 110.5 -267 q0 -138 -90.5 -245 q-90.5 -107 -224.5 -128 l0 -472 l-119 0 l0 586 l56 0 q106 0 182.5 74.5 q76.5 74.5 76.5 184.5 q0 106 -72 182 q-72 76 -187 76 q-73 0 -139 -40 q-66 -40 -98 -113 l-110 46 ZM323 0 l0 121 l121 0 l0 -121 l-121 0 Z" /><glyph glyph-name="A" unicode="a" d="M32 414 l71 118 l82 0 l0 583 q0 101 52 189.5 q52 88.5 140.5 140 q88.5 51.5 189.5 51.5 q101 0 189.5 -51.5 q88.5 -51.5 140.5 -140 q52 -88.5 52 -189.5 l0 -1115 l-119 0 l0 414 l-526 0 l0 -414 l-119 0 l0 414 l-153 0 ZM304 532 l526 0 l0 583 q0 78 -37.5 138 q-37.5 60 -98 92.5 q-60.5 32.5 -127.5 32.5 q-116 0 -189.5 -80 q-73.5 -80 -73.5 -183 l0 -583 Z" /><glyph glyph-name="B" unicode="b" d="M32 882 l71 120 l108 0 l0 464 l390 0 q121 0 206 -85 q85 -85 85 -210 q0 -147 -120 -233 q114 -65 185 -180.5 q71 -115.5 71 -257.5 q0 -136 -66.5 -251 q-66.5 -115 -182 -182 q-115.5 -67 -251.5 -67 l-317 0 l0 882 l-179 0 ZM330 119 l198 0 q164 0 273 114 q109 114 109 267 q0 110 -53 196.5 q-53 86.5 -141.5 136 q-88.5 49.5 -187.5 49.5 l-198 0 l0 -763 ZM330 1000 l271 0 q78 0 125.5 53 q47.5 53 47.5 120 q0 78 -50.5 126 q-50.5 48 -122.5 48 l-271 0 l0 -347 Z" /><glyph glyph-name="C" unicode="c" d="M32 735 q0 153 58.5 293 q58.5 140 165 247 q106.5 107 245.5 164 q139 57 292 57 q190 0 351.5 -83 q161.5 -83 265.5 -229 l-95 -67 q-54 75 -138 136.5 q-84 61.5 -180 93 q-96 31.5 -204 31.5 q-172 0 -321 -85.5 q-149 -85.5 -235 -236.5 q-86 -151 -86 -321 q0 -175 86 -323.5 q86 -148.5 235 -234.5 q149 -86 321 -86 q160 0 297 71 q137 71 225 192 l97 -69 q-103 -142 -266 -227.5 q-163 -85.5 -353 -85.5 q-209 0 -382.5 102.5 q-173.5 102.5 -276 277 q-102.5 174.5 -102.5 383.5 Z" /><glyph glyph-name="D" unicode="d" d="M32 1347 l71 119 l285 0 q155 0 287.5 -57 q132.5 -57 232 -156.5 q99.5 -99.5 156.5 -232 q57 -132.5 57 -287.5 q0 -198 -98 -367.5 q-98 -169.5 -267.5 -267.5 q-169.5 -98 -367.5 -98 l-179 0 l0 1347 l-177 0 ZM328 119 l60 0 q168 0 309.5 81.5 q141.5 81.5 223 224 q81.5 142.5 81.5 308.5 q0 125 -49.5 240.5 q-49.5 115.5 -129 195 q-79.5 79.5 -195 129 q-115.5 49.5 -240.5 49.5 l-60 0 l0 -1228 Z" /><glyph glyph-name="E" unicode="e" d="M32 882 l71 118 l108 0 l0 466 l673 0 l0 -119 l-554 0 l0 -347 l351 0 l0 -118 l-351 0 l0 -763 l554 0 l0 -119 l-673 0 l0 882 l-179 0 Z" /><glyph glyph-name="F" unicode="f" d="M32 882 l71 120 l108 0 l0 464 l673 0 l0 -119 l-554 0 l0 -345 l351 0 l0 -120 l-351 0 l0 -882 l-119 0 l0 882 l-179 0 Z" /><glyph glyph-name="G" unicode="g" d="M32 735 q0 153 58.5 293 q58.5 140 165 247 q106.5 107 245.5 164 q139 57 292 57 q190 0 351.5 -83 q161.5 -83 265.5 -229 l-95 -67 q-54 75 -138 136.5 q-84 61.5 -180 93 q-96 31.5 -204 31.5 q-172 0 -321 -85.5 q-149 -85.5 -235 -236.5 q-86 -151 -86 -321 q0 -175 86 -323.5 q86 -148.5 235 -234.5 q149 -86 321 -86 q218 0 386 126 q168 126 231 324 l-610 0 l77 119 l675 0 q-17 -192 -121.5 -349.5 q-104.5 -157.5 -270.5 -248 q-166 -90.5 -367 -90.5 q-209 0 -382.5 102.5 q-173.5 102.5 -276 277 q-102.5 174.5 -102.5 383.5 Z" /><glyph glyph-name="H" unicode="h" d="M32 882 l71 120 l108 0 l0 464 l119 0 l0 -464 l517 0 l0 464 l119 0 l0 -1466 l-119 0 l0 882 l-517 0 l0 -882 l-119 0 l0 882 l-179 0 Z" /><glyph glyph-name="I" unicode="i" d="M65 0 l0 1466 l118 0 l0 -1466 l-118 0 Z" /><glyph glyph-name="J" unicode="j" d="M32 112 l84 82 q75 -75 181 -75 q114 0 181 77.5 q67 77.5 67 169.5 l0 1100 l119 0 l0 -1100 q0 -151 -105.5 -258.5 q-105.5 -107.5 -261.5 -107.5 q-157 0 -265 112 Z" /><glyph glyph-name="K" unicode="k" d="M65 0 l0 1466 l118 0 l0 -593 l399 593 l142 0 l-314 -470 l541 -996 l-134 0 l-481 884 l-153 -226 l0 -658 l-118 0 Z" /><glyph glyph-name="L" unicode="l" d="M65 0 l0 1466 l118 0 l0 -1347 l403 0 l0 -119 l-521 0 Z" /><glyph glyph-name="M" unicode="m" d="M65 0 l0 1494 l541 -593 l541 593 l0 -1494 l-119 0 l0 1188 l-422 -461 l-423 461 l0 -1188 l-118 0 Z" /><glyph glyph-name="N" unicode="n" d="M65 0 l0 1494 l608 -1074 l0 1046 l118 0 l0 -1494 l-608 1071 l0 -1043 l-118 0 Z" /><glyph glyph-name="O" unicode="o" d="M32 735 q0 153 58.5 293 q58.5 140 165 247 q106.5 107 245.5 164 q139 57 292 57 q209 0 384 -102.5 q175 -102.5 277 -276 q102 -173.5 102 -382.5 q0 -209 -102 -383.5 q-102 -174.5 -277 -277 q-175 -102.5 -384 -102.5 q-209 0 -382.5 102.5 q-173.5 102.5 -276 277 q-102.5 174.5 -102.5 383.5 ZM151 735 q0 -175 86 -323.5 q86 -148.5 235 -234.5 q149 -86 321 -86 q175 0 323.5 86 q148.5 86 235 235 q86.5 149 86.5 323 q0 170 -86.5 321 q-86.5 151 -235 236.5 q-148.5 85.5 -323.5 85.5 q-172 0 -321 -85.5 q-149 -85.5 -235 -236.5 q-86 -151 -86 -321 Z" /><glyph glyph-name="P" unicode="p" d="M32 1347 l71 119 l399 0 q140 0 262 -70 q122 -70 192 -192 q70 -122 70 -262 q0 -218 -153 -371 q-153 -153 -371 -153 l-174 0 l0 -418 l-119 0 l0 1347 l-177 0 ZM328 537 l174 0 q181 0 293.5 120.5 q112.5 120.5 112.5 284.5 q0 121 -58.5 213.5 q-58.5 92.5 -151 142 q-92.5 49.5 -196.5 49.5 l-174 0 l0 -810 Z" /><glyph glyph-name="Q" unicode="q" d="M32 735 q0 153 58.5 294.5 q58.5 141.5 165 248 q106.5 106.5 245.5 163.5 q139 57 292 57 q209 0 384 -102.5 q175 -102.5 277 -277 q102 -174.5 102 -383.5 q0 -338 -250 -567 l119 -159 l-95 -72 l-118 158 q-188 -123 -419 -123 q-153 0 -293 59.5 q-140 59.5 -245.5 165 q-105.5 105.5 -164 246.5 q-58.5 141 -58.5 292 ZM151 735 q0 -175 86 -323.5 q86 -148.5 235 -234.5 q149 -86 321 -86 q192 0 347 101 l-168 226 l97 74 l166 -227 q97 91 150 212.5 q53 121.5 53 257.5 q0 170 -86.5 321 q-86.5 151 -235 236.5 q-148.5 85.5 -323.5 85.5 q-172 0 -321 -85.5 q-149 -85.5 -235 -236.5 q-86 -151 -86 -321 Z" /><glyph glyph-name="R" unicode="r" d="M32 1347 l71 119 l365 0 q140 0 262 -70 q122 -70 192 -192 q70 -122 70 -262 q0 -119 -54 -228.5 q-54 -109.5 -149 -183 q-95 -73.5 -207 -99.5 l367 -431 l-158 0 l-353 418 l-110 0 l0 -418 l-119 0 l0 1347 l-177 0 ZM328 537 l140 0 q181 0 293 120.5 q112 120.5 112 284.5 q0 121 -58 213.5 q-58 92.5 -151 142 q-93 49.5 -196 49.5 l-140 0 l0 -810 Z" /><glyph glyph-name="S" unicode="s" d="M34 308 l113 33 q26 -110 112 -177 q86 -67 194 -67 q134 0 223 91.5 q89 91.5 89 221.5 q0 114 -64.5 195 q-64.5 81 -165.5 106 l-169 44 q-123 32 -199 132 q-76 100 -76 228 q0 155 108.5 263.5 q108.5 108.5 263.5 108.5 q99 0 186.5 -50.5 q87.5 -50.5 137.5 -134.5 l-104 -58 q-71 125 -220 125 q-106 0 -180 -76.5 q-74 -76.5 -74 -177.5 q0 -88 54 -157.5 q54 -69.5 134 -88.5 l168 -43 q140 -37 229.5 -153.5 q89.5 -116.5 89.5 -262.5 q0 -181 -127.5 -306.5 q-127.5 -125.5 -303.5 -125.5 q-149 0 -265.5 93 q-116.5 93 -153.5 237 Z" /><glyph glyph-name="T" unicode="t" d="M32 1347 l0 119 l701 0 l0 -119 l-291 0 l0 -1347 l-119 0 l0 1347 l-291 0 Z" /><glyph glyph-name="U" unicode="u" d="M65 382 l0 1084 l118 0 l0 -1084 q0 -101 74.5 -182 q74.5 -81 188.5 -81 q103 0 183 73 q80 73 80 190 l0 1084 l119 0 l0 -1084 q0 -101 -52 -190 q-52 -89 -140 -140.5 q-88 -51.5 -190 -51.5 q-101 0 -189.5 51.5 q-88.5 51.5 -140 140 q-51.5 88.5 -51.5 190.5 Z" /><glyph glyph-name="V" unicode="v" d="M0 1466 l125 0 l405 -1140 l406 1140 l125 0 l-531 -1494 l-530 1494 Z" /><glyph glyph-name="W" unicode="w" d="M0 1466 l125 0 l382 -1125 l258 763 l259 -763 l382 1125 l125 0 l-507 -1494 l-259 763 l-258 -763 l-507 1494 Z" /><glyph glyph-name="X" unicode="x" d="M32 0 l365 815 l-291 651 l129 0 l226 -507 l227 507 l129 0 l-291 -651 l364 -815 l-129 0 l-300 670 l-299 -670 l-130 0 Z" /><glyph glyph-name="Y" unicode="y" d="M0 1466 l129 0 l276 -649 l274 649 l129 0 l-345 -813 l0 -653 l-118 0 l0 653 l-345 813 Z" /><glyph glyph-name="Z" unicode="z" d="M32 0 l481 1347 l-461 0 l0 119 l631 0 l-483 -1347 l516 0 l0 -119 l-684 0 Z" /><glyph glyph-name="backslash" unicode="\" d="M0 1496 l93 0 l731 -1524 l-93 0 l-731 1524 Z" /><glyph glyph-name="grave" unicode="`" d="M65 1768 l64 120 l503 -308 l-28 -49 l-539 237 Z" /><glyph glyph-name="a" unicode="a" d="M32 440 q0 194 138 329.5 q138 135.5 328 135.5 q196 0 336 -144 l130 121 l0 -882 l-130 119 q-140 -144 -336 -145 q-190 0 -328 138 q-138 138 -138 328 ZM151 440 q0 -147 100 -247 q100 -100 247 -100 q144 0 245.5 101 q101.5 101 101.5 246 q0 144 -101.5 245.5 q-101.5 101.5 -245.5 101.5 q-147 0 -247 -100.5 q-100 -100.5 -100 -246.5 Z" /><glyph glyph-name="b" unicode="b" d="M32 1347 l65 119 l200 0 l0 -716 q140 155 348 155 q194 0 329.5 -135.5 q135.5 -135.5 135.5 -329.5 q0 -190 -135.5 -328 q-135.5 -138 -329.5 -138 q-196 0 -337 145 l-129 -119 l0 1347 l-147 0 ZM297 440 q0 -144 101.5 -245.5 q101.5 -101.5 246.5 -101.5 q147 0 247 100 q100 100 100 247 q0 147 -100 247 q-100 100 -247 100 q-144 0 -246 -101.5 q-102 -101.5 -102 -245.5 Z" /><glyph glyph-name="c" unicode="c" d="M32 440 q0 194 138 329.5 q138 135.5 328 135.5 q110 0 200.5 -43 q90.5 -43 157.5 -125 l-93 -73 q-106 123 -265 123 q-147 0 -247 -100.5 q-100 -100.5 -100 -246.5 q0 -147 100 -247 q100 -100 247 -100 q157 0 259 116 l95 -73 q-67 -78 -157.5 -120 q-90.5 -42 -196.5 -42 q-190 0 -328 138 q-138 138 -138 328 Z" /><glyph glyph-name="d" unicode="d" d="M32 440 q0 194 138 329.5 q138 135.5 328 135.5 q207 0 347 -155 l0 716 l119 0 l0 -1466 l-130 119 q-140 -144 -336 -145 q-190 0 -328 138 q-138 138 -138 328 ZM151 440 q0 -147 100 -247 q100 -100 247 -100 q144 0 245.5 101 q101.5 101 101.5 246 q0 144 -101.5 245.5 q-101.5 101.5 -245.5 101.5 q-147 0 -247 -100.5 q-100 -100.5 -100 -246.5 Z" /><glyph glyph-name="e" unicode="e" d="M32 440 q0 194 138 329.5 q138 135.5 328 135.5 q121 0 227.5 -60 q106.5 -60 164.5 -153 l-601 -530 q91 -69 209 -69 q99 0 180 49.5 q81 49.5 126 135.5 l104 -58 q-58 -110 -168.5 -178 q-110.5 -68 -241.5 -68 q-190 0 -328 138 q-138 138 -138 328 ZM151 440 q0 -106 58 -194 l515 457 q-97 84 -226 84 q-147 0 -247 -100.5 q-100 -100.5 -100 -246.5 Z" /><glyph glyph-name="f" unicode="f" d="M32 761 l0 119 l162 0 l0 265 q0 88 43 161.5 q43 73.5 116.5 116.5 q73.5 43 161.5 43 q103 0 190 -63 l-80 -88 q-47 32 -110 32 q-84 0 -143 -59 q-59 -59 -59 -143 l0 -265 l159 0 l0 -119 l-159 0 l0 -761 l-119 0 l0 761 l-162 0 Z" /><glyph glyph-name="g" unicode="g" d="M32 440 q0 194 138 329.5 q138 135.5 328 135.5 q196 0 336 -144 l130 121 l0 -996 q0 -198 -140.5 -336.5 q-140.5 -138.5 -334.5 -138.5 q-233 0 -377 186 l91 73 q103 -140 286 -140 q147 0 251.5 100.5 q104.5 100.5 104.5 255.5 l0 243 q-140 -155 -347 -155 q-190 0 -328 138 q-138 138 -138 328 ZM151 440 q0 -147 100 -247 q100 -100 247 -100 q144 0 245.5 101 q101.5 101 101.5 246 q0 144 -101.5 245.5 q-101.5 101.5 -245.5 101.5 q-147 0 -247 -100.5 q-100 -100.5 -100 -246.5 Z" /><glyph glyph-name="h" unicode="h" d="M65 0 l0 1466 l118 0 l0 -649 q99 88 233 88 q149 0 250 -101 q101 -101 101 -250 l0 -554 l-118 0 l0 554 q0 101 -68 167 q-68 66 -165 66 q-97 0 -165 -68 q-68 -68 -68 -165 l0 -554 l-118 0 Z" /><glyph glyph-name="i" unicode="i" d="M65 0 l0 882 l118 0 l0 -882 l-118 0 ZM65 1097 l0 130 l118 0 l0 -130 l-118 0 Z" /><glyph glyph-name="j" unicode="j" d="M-416 -487 l90 75 q65 -71 166 -71 q91 0 158 62.5 q67 62.5 67 161.5 l0 1141 l118 0 l0 -1141 q0 -142 -100 -242 q-100 -100 -243 -100 q-155 0 -256 114 ZM65 1108 l0 119 l118 0 l0 -119 l-118 0 Z" /><glyph glyph-name="k" unicode="k" d="M65 0 l0 1466 l118 0 l0 -994 l252 410 l141 0 l-261 -423 l321 -459 l-144 0 l-309 442 l0 -442 l-118 0 Z" /><glyph glyph-name="l" unicode="l" d="M65 0 l0 1466 l118 0 l0 -1466 l-118 0 Z" /><glyph glyph-name="m" unicode="m" d="M65 0 l0 882 l99 -78 q101 101 243 101 q86 0 164 -40.5 q78 -40.5 121 -107.5 q102 148 280 148 l2 0 q75 0 137 -28 q62 -28 106 -72 q44 -44 72 -105.5 q28 -61.5 28 -136.5 l0 -563 l-118 0 l0 563 q0 101 -67 162.5 q-67 61.5 -158 61.5 q-88 0 -156 -61.5 q-68 -61.5 -68 -162.5 l0 -563 l-118 0 l0 563 q0 101 -67 162.5 q-67 61.5 -158 61.5 q-88 0 -156 -61.5 q-68 -61.5 -68 -162.5 l0 -563 l-118 0 Z" /><glyph glyph-name="n" unicode="n" d="M65 0 l0 882 l101 -82 q100 105 247 105 l3 0 q149 0 250 -101 q101 -101 101 -250 l0 -554 l-118 0 l0 554 q0 101 -68 167 q-68 66 -165 66 q-97 0 -165 -68 q-68 -68 -68 -165 l0 -554 l-118 0 Z" /><glyph glyph-name="o" unicode="o" d="M32 440 q0 194 138 329.5 q138 135.5 328 135.5 q194 0 330 -135.5 q136 -135.5 136 -329.5 q0 -190 -136 -328 q-136 -138 -330 -138 q-190 0 -328 138 q-138 138 -138 328 ZM151 440 q0 -147 100 -247 q100 -100 247 -100 q144 0 245.5 101 q101.5 101 101.5 246 q0 144 -101.5 245.5 q-101.5 101.5 -245.5 101.5 q-147 0 -247 -100.5 q-100 -100.5 -100 -246.5 Z" /><glyph glyph-name="p" unicode="p" d="M65 -586 l0 1468 l129 -121 q140 144 336 144 q194 0 330 -135.5 q136 -135.5 136 -329.5 q0 -190 -136 -328 q-136 -138 -330 -138 q-207 0 -347 155 l0 -715 l-118 0 ZM183 440 q0 -144 101.5 -245.5 q101.5 -101.5 245.5 -101.5 q147 0 247 100 q100 100 100 247 q0 147 -100 247 q-100 100 -247 100 q-144 0 -245.5 -101.5 q-101.5 -101.5 -101.5 -245.5 Z" /><glyph glyph-name="q" unicode="q" d="M32 440 q0 194 138 329.5 q138 135.5 328 135.5 q196 0 336 -144 l130 121 l0 -1350 l146 0 l-64 -118 l-201 0 l0 715 q-140 -155 -347 -155 q-190 0 -328 138 q-138 138 -138 328 ZM151 440 q0 -147 100 -247 q100 -100 247 -100 q144 0 245.5 101 q101.5 101 101.5 246 q0 144 -101.5 245.5 q-101.5 101.5 -245.5 101.5 q-147 0 -247 -100.5 q-100 -100.5 -100 -246.5 Z" /><glyph glyph-name="r" unicode="r" d="M65 0 l0 882 l99 -80 q99 103 246 103 q3 0 6 0 q61 0 110 -21 l-54 -106 q-26 9 -62 9 q-99 0 -163 -67 q-64 -67 -64 -159 l0 -561 l-118 0 Z" /><glyph glyph-name="s" unicode="s" d="M32 132 l104 56 q43 -86 142 -87 q67 0 112 45.5 q45 45.5 45 112.5 q0 54 -31 96 q-31 42 -78 55 l-104 30 q-78 24 -125 85 q-47 61 -47 139 q0 97 67.5 165 q67.5 68 164.5 68 q69 0 128.5 -39 q59.5 -39 85.5 -103 l-108 -46 q-26 69 -106 69 q-50 0 -82 -34.5 q-32 -34.5 -32 -79.5 q0 -86 84 -110 l104 -30 q88 -24 143 -97 q55 -73 55 -168 q0 -78 -36.5 -140.5 q-36.5 -62.5 -99 -99 q-62.5 -36.5 -140.5 -36.5 q-78 0 -142.5 40 q-64.5 40 -103.5 109 Z" /><glyph glyph-name="t" unicode="t" d="M32 763 l0 119 l160 0 l0 248 l118 58 l0 -306 l158 0 l0 -119 l-158 0 l0 -763 l-118 0 l0 763 l-160 0 Z" /><glyph glyph-name="u" unicode="u" d="M65 328 l0 554 l118 0 l0 -554 q0 -97 70 -165 q70 -68 163 -68 q101 0 167 70 q66 70 66 163 l0 554 l118 0 l0 -882 l-101 82 q-101 -106 -250 -106 q-149 0 -250 101.5 q-101 101.5 -101 250.5 Z" /><glyph glyph-name="v" unicode="v" d="M0 882 l129 0 l259 -604 l259 604 l129 0 l-388 -910 l-388 910 Z" /><glyph glyph-name="w" unicode="w" d="M0 882 l127 0 l237 -587 l197 511 l196 -511 l237 587 l127 0 l-366 -910 l-194 504 l-195 -504 l-366 910 Z" /><glyph glyph-name="x" unicode="x" d="M0 0 l291 509 l-213 373 l135 0 l145 -255 l144 255 l136 0 l-211 -373 l289 -509 l-136 0 l-222 390 l-222 -390 l-136 0 Z" /><glyph glyph-name="y" unicode="y" d="M65 328 l0 554 l118 0 l0 -554 q0 -97 70 -165 q70 -68 163 -68 q101 0 167 70 q66 70 66 163 l0 554 l118 0 l0 -1087 q0 -149 -104.5 -253.5 q-104.5 -104.5 -252.5 -104.5 q-186 0 -294 153 l93 69 q69 -103 201 -103 q108 0 173.5 71 q65.5 71 65.5 168 l0 270 q-99 -88 -233 -89 q-149 0 -250 101.5 q-101 101.5 -101 250.5 Z" /><glyph glyph-name="z" unicode="z" d="M32 0 l378 763 l-371 0 l0 119 l560 0 l-377 -763 l388 0 l0 -119 l-578 0 Z" /><glyph glyph-name="asciitilde" unicode="~" d="M65 1658 l0 93 q73 69 189 68 q32 0 108 -38.5 q76 -38.5 108 -38.5 q127 0 194 65 l0 -93 q-67 -65 -194 -65 q-32 0 -107.5 39 q-75.5 39 -108.5 39 q-116 0 -189 -69 Z" /><glyph glyph-name="nonbreakingspace" unicode=" " d="" /><glyph glyph-name="exclamdown" unicode="¡" d="M65 0 l0 1222 l118 0 l0 -1222 l-118 0 ZM65 1345 l0 121 l120 0 l0 -121 l-120 0 Z" /><glyph glyph-name="sterling" unicode="£" d="M65 0 l0 119 l110 0 q114 0 175.5 57 q61.5 57 61.5 109 q0 37 -63 183 q-19 45 -62 127 l-222 0 l0 119 l159 0 q-15 30 -46 88 q-31 58 -55 95 q-47 82 -48 179 q0 101 48.5 183 q48.5 82 130.5 130.5 q82 48.5 184 48.5 q149 0 260 -108 l-84 -84 q-73 73 -176 73 q-110 0 -177 -73 q-67 -73 -67 -170 q0 -71 30 -121 q41 -73 132 -241 l302 0 l0 -119 l-242 0 q114 -233 114 -310 q0 -84 -77 -166 l310 0 l0 -119 l-698 0 Z" /><glyph glyph-name="dieresis" unicode="¨¬" d="M65 1613 l0 138 l138 0 l0 -138 l-138 0 ZM373 1613 l0 138 l138 0 l0 -138 l-138 0 Z" /><glyph glyph-name="uni00AD" unicode="­" d="M65 388 l0 119 l403 0 l0 -119 l-403 0 Z" /><glyph glyph-name="degree" unicode="°" d="M32 1309 q0 65 46.5 111 q46.5 46 111.5 46 q34 0 61 -11 q27 -11 51 -34.5 q24 -23.5 34.5 -50.5 q10.5 -27 10.5 -61 q0 -65 -46.5 -111.5 q-46.5 -46.5 -110.5 -46.5 q-63 0 -110.5 47.5 q-47.5 47.5 -47.5 110.5 ZM95 1309 q0 -39 28 -67 q28 -28 67 -28 q39 0 67 28 q28 28 28 67 q0 39 -28 66.5 q-28 27.5 -67 27.5 q-39 0 -67 -28 q-28 -28 -28 -66 Z" /><glyph glyph-name="guillemotleft" unicode="«´" d="M65 1580 l502 308 l65 -120 l-539 -237 l-28 49 Z" /><glyph glyph-name="questiondown" unicode="¿" d="M32 377 q0 138 88.5 244 q88.5 106 226.5 129 l0 472 l119 0 l0 -586 l-56 0 q-103 0 -181 -72 q-78 -72 -78 -187 q0 -103 74.5 -180.5 q74.5 -77.5 184.5 -77.5 q75 0 141 41 q66 41 96 112 l110 -46 q-28 -65 -80 -116.5 q-52 -51.5 -122 -80.5 q-70 -29 -145 -29 q-153 0 -265.5 112 q-112.5 112 -112.5 265 ZM345 1345 l0 121 l121 0 l0 -121 l-121 0 Z" /><glyph glyph-name="Agrave" unicode="à" d="M32 414 l71 118 l82 0 l0 583 q0 101 52 189.5 q52 88.5 140.5 140 q88.5 51.5 189.5 51.5 q101 0 189.5 -51.5 q88.5 -51.5 140.5 -140 q52 -88.5 52 -189.5 l0 -1115 l-119 0 l0 414 l-526 0 l0 -414 l-119 0 l0 414 l-153 0 ZM304 532 l526 0 l0 583 q0 78 -37.5 138 q-37.5 60 -98 92.5 q-60.5 32.5 -127.5 32.5 q-116 0 -189.5 -80 q-73.5 -80 -73.5 -183 l0 -583 ZM313 1768 l64 120 l503 -308 l-28 -49 l-539 237 Z" /><glyph glyph-name="Aacute" unicode="áç" d="M32 414 l71 118 l82 0 l0 583 q0 101 52 189.5 q52 88.5 140.5 140 q88.5 51.5 189.5 51.5 q101 0 189.5 -51.5 q88.5 -51.5 140.5 -140 q52 -88.5 52 -189.5 l0 -1115 l-119 0 l0 414 l-526 0 l0 -414 l-119 0 l0 414 l-153 0 ZM254 1580 l503 308 l64 -120 l-539 -237 l-28 49 ZM304 532 l526 0 l0 583 q0 78 -37.5 138 q-37.5 60 -98 92.5 q-60.5 32.5 -127.5 32.5 q-116 0 -189.5 -80 q-73.5 -80 -73.5 -183 l0 -583 Z" /><glyph glyph-name="Acircumflex" unicode="â" d="M32 414 l71 118 l82 0 l0 583 q0 101 52 189.5 q52 88.5 140.5 140 q88.5 51.5 189.5 51.5 q101 0 189.5 -51.5 q88.5 -51.5 140.5 -140 q52 -88.5 52 -189.5 l0 -1115 l-119 0 l0 414 l-526 0 l0 -414 l-119 0 l0 414 l-153 0 ZM265 1574 l0 110 l302 153 l297 -153 l0 -110 l-297 153 l-302 -153 ZM304 532 l526 0 l0 583 q0 78 -37.5 138 q-37.5 60 -98 92.5 q-60.5 32.5 -127.5 32.5 q-116 0 -189.5 -80 q-73.5 -80 -73.5 -183 l0 -583 Z" /><glyph glyph-name="Atilde" unicode="ã" d="M32 414 l71 118 l82 0 l0 583 q0 101 52 189.5 q52 88.5 140.5 140 q88.5 51.5 189.5 51.5 q101 0 189.5 -51.5 q88.5 -51.5 140.5 -140 q52 -88.5 52 -189.5 l0 -1115 l-119 0 l0 414 l-526 0 l0 -414 l-119 0 l0 414 l-153 0 ZM263 1658 l0 93 q73 69 190 68 q32 0 107.5 -38.5 q75.5 -38.5 107.5 -38.5 q127 0 194 65 l0 -93 q-67 -65 -194 -65 q-32 0 -107.5 39 q-75.5 39 -107.5 39 q-116 0 -190 -69 ZM304 532 l526 0 l0 583 q0 78 -37.5 138 q-37.5 60 -98 92.5 q-60.5 32.5 -127.5 32.5 q-116 0 -189.5 -80 q-73.5 -80 -73.5 -183 l0 -583 Z" /><glyph glyph-name="Adieresis" unicode="ä" d="M32 414 l71 118 l82 0 l0 583 q0 101 52 189.5 q52 88.5 140.5 140 q88.5 51.5 189.5 51.5 q101 0 189.5 -51.5 q88.5 -51.5 140.5 -140 q52 -88.5 52 -189.5 l0 -1115 l-119 0 l0 414 l-526 0 l0 -414 l-119 0 l0 414 l-153 0 ZM304 532 l526 0 l0 583 q0 78 -37.5 138 q-37.5 60 -98 92.5 q-60.5 32.5 -127.5 32.5 q-116 0 -189.5 -80 q-73.5 -80 -73.5 -183 l0 -583 ZM343 1613 l0 138 l138 0 l0 -138 l-138 0 ZM651 1613 l0 138 l138 0 l0 -138 l-138 0 Z" /><glyph glyph-name="Aring" unicode="å" d="M32 414 l71 118 l82 0 l0 583 q0 101 52 189.5 q52 88.5 140.5 140 q88.5 51.5 189.5 51.5 q101 0 189.5 -51.5 q88.5 -51.5 140.5 -140 q52 -88.5 52 -189.5 l0 -1115 l-119 0 l0 414 l-526 0 l0 -414 l-119 0 l0 414 l-153 0 ZM304 532 l526 0 l0 583 q0 78 -37.5 138 q-37.5 60 -98 92.5 q-60.5 32.5 -127.5 32.5 q-116 0 -189.5 -80 q-73.5 -80 -73.5 -183 l0 -583 ZM410 1735 q0 65 46 111.5 q46 46.5 111 46.5 q34 0 61 -11 q27 -11 51 -34.5 q24 -23.5 34.5 -50.5 q10.5 -27 10.5 -62 q0 -65 -46 -111 q-46 -46 -111 -46 q-63 0 -110 47.5 q-47 47.5 -47 109.5 ZM472 1735 q0 -39 28 -66.5 q28 -27.5 67 -27.5 q39 0 67 28 q28 28 28 66 q0 39 -28 67 q-28 28 -67 28 q-39 0 -67 -28 q-28 -28 -28 -67 Z" /><glyph glyph-name="Egrave" unicode="è" d="M32 882 l71 118 l108 0 l0 466 l673 0 l0 -119 l-554 0 l0 -347 l351 0 l0 -118 l-351 0 l0 -763 l554 0 l0 -119 l-673 0 l0 882 l-179 0 ZM269 1768 l65 120 l502 -308 l-28 -49 l-539 237 Z" /><glyph glyph-name="Eacute" unicode="é" d="M32 882 l71 118 l108 0 l0 466 l673 0 l0 -119 l-554 0 l0 -347 l351 0 l0 -118 l-351 0 l0 -763 l554 0 l0 -119 l-673 0 l0 882 l-179 0 ZM254 1580 l503 308 l64 -120 l-539 -237 l-28 49 Z" /><glyph glyph-name="Ecircumflex" unicode="êæ" d="M32 882 l71 118 l108 0 l0 466 l673 0 l0 -119 l-554 0 l0 -347 l351 0 l0 -118 l-351 0 l0 -763 l554 0 l0 -119 l-673 0 l0 882 l-179 0 ZM250 1574 l0 110 l302 153 l297 -153 l0 -110 l-297 153 l-302 -153 Z" /><glyph glyph-name="Edieresis" unicode="ë" d="M32 882 l71 118 l108 0 l0 466 l673 0 l0 -119 l-554 0 l0 -347 l351 0 l0 -118 l-351 0 l0 -763 l554 0 l0 -119 l-673 0 l0 882 l-179 0 ZM330 1613 l0 138 l138 0 l0 -138 l-138 0 ZM638 1613 l0 138 l138 0 l0 -138 l-138 0 Z" /><glyph glyph-name="Igrave" unicode="ì" d="M-144 1768 l64 120 l503 -308 l-28 -49 l-539 237 ZM65 0 l0 1466 l118 0 l0 -1466 l-118 0 Z" /><glyph glyph-name="Iacute" unicode="í" d="M-177 1580 l503 308 l64 -120 l-539 -237 l-28 49 ZM65 0 l0 1466 l118 0 l0 -1466 l-118 0 Z" /><glyph glyph-name="Icircumflex" unicode="î" d="M-177 1574 l0 110 l302 153 l298 -153 l0 -110 l-298 153 l-302 -153 ZM65 0 l0 1466 l118 0 l0 -1466 l-118 0 Z" /><glyph glyph-name="Idieresis" unicode="ï" d="M-97 1613 l0 138 l138 0 l0 -138 l-138 0 ZM65 0 l0 1466 l118 0 l0 -1466 l-118 0 ZM211 1613 l0 138 l138 0 l0 -138 l-138 0 Z" /><glyph glyph-name="Ntilde" unicode="ñ" d="M65 0 l0 1494 l608 -1074 l0 1046 l118 0 l0 -1494 l-608 1071 l0 -1043 l-118 0 ZM129 1658 l0 93 q73 69 190 68 q32 0 107.5 -38.5 q75.5 -38.5 108.5 -38.5 q127 0 194 65 l0 -93 q-67 -65 -194 -65 q-32 0 -108 39 q-76 39 -108 39 q-116 0 -190 -69 Z" /><glyph glyph-name="Ograve" unicode="ò" d="M32 735 q0 153 58.5 293 q58.5 140 165 247 q106.5 107 245.5 164 q139 57 292 57 q209 0 384 -102.5 q175 -102.5 277 -276 q102 -173.5 102 -382.5 q0 -209 -102 -383.5 q-102 -174.5 -277 -277 q-175 -102.5 -384 -102.5 q-209 0 -382.5 102.5 q-173.5 102.5 -276 277 q-102.5 174.5 -102.5 383.5 ZM151 735 q0 -175 86 -323.5 q86 -148.5 235 -234.5 q149 -86 321 -86 q175 0 323.5 86 q148.5 86 235 235 q86.5 149 86.5 323 q0 170 -86.5 321 q-86.5 151 -235 236.5 q-148.5 85.5 -323.5 85.5 q-172 0 -321 -85.5 q-149 -85.5 -235 -236.5 q-86 -151 -86 -321 ZM550 1768 l64 120 l503 -308 l-28 -49 l-539 237 Z" /><glyph glyph-name="Oacute" unicode="ó" d="M32 735 q0 153 58.5 293 q58.5 140 165 247 q106.5 107 245.5 164 q139 57 292 57 q209 0 384 -102.5 q175 -102.5 277 -276 q102 -173.5 102 -382.5 q0 -209 -102 -383.5 q-102 -174.5 -277 -277 q-175 -102.5 -384 -102.5 q-209 0 -382.5 102.5 q-173.5 102.5 -276 277 q-102.5 174.5 -102.5 383.5 ZM151 735 q0 -175 86 -323.5 q86 -148.5 235 -234.5 q149 -86 321 -86 q175 0 323.5 86 q148.5 86 235 235 q86.5 149 86.5 323 q0 170 -86.5 321 q-86.5 151 -235 236.5 q-148.5 85.5 -323.5 85.5 q-172 0 -321 -85.5 q-149 -85.5 -235 -236.5 q-86 -151 -86 -321 ZM470 1580 l502 308 l65 -120 l-539 -237 l-28 49 Z" /><glyph glyph-name="Ocircumflex" unicode="ô" d="M32 735 q0 153 58.5 293 q58.5 140 165 247 q106.5 107 245.5 164 q139 57 292 57 q209 0 384 -102.5 q175 -102.5 277 -276 q102 -173.5 102 -382.5 q0 -209 -102 -383.5 q-102 -174.5 -277 -277 q-175 -102.5 -384 -102.5 q-209 0 -382.5 102.5 q-173.5 102.5 -276 277 q-102.5 174.5 -102.5 383.5 ZM151 735 q0 -175 86 -323.5 q86 -148.5 235 -234.5 q149 -86 321 -86 q175 0 323.5 86 q148.5 86 235 235 q86.5 149 86.5 323 q0 170 -86.5 321 q-86.5 151 -235 236.5 q-148.5 85.5 -323.5 85.5 q-172 0 -321 -85.5 q-149 -85.5 -235 -236.5 q-86 -151 -86 -321 ZM492 1574 l0 110 l301 153 l298 -153 l0 -110 l-298 153 l-301 -153 Z" /><glyph glyph-name="Otilde" unicode="õ" d="M32 735 q0 153 58.5 293 q58.5 140 165 247 q106.5 107 245.5 164 q139 57 292 57 q209 0 384 -102.5 q175 -102.5 277 -276 q102 -173.5 102 -382.5 q0 -209 -102 -383.5 q-102 -174.5 -277 -277 q-175 -102.5 -384 -102.5 q-209 0 -382.5 102.5 q-173.5 102.5 -276 277 q-102.5 174.5 -102.5 383.5 ZM151 735 q0 -175 86 -323.5 q86 -148.5 235 -234.5 q149 -86 321 -86 q175 0 323.5 86 q148.5 86 235 235 q86.5 149 86.5 323 q0 170 -86.5 321 q-86.5 151 -235 236.5 q-148.5 85.5 -323.5 85.5 q-172 0 -321 -85.5 q-149 -85.5 -235 -236.5 q-86 -151 -86 -321 ZM496 1658 l0 93 q73 69 190 68 q32 0 107.5 -38.5 q75.5 -38.5 107.5 -38.5 q127 0 194 65 l0 -93 q-67 -65 -194 -65 q-32 0 -107.5 39 q-75.5 39 -107.5 39 q-116 0 -190 -69 Z" /><glyph glyph-name="Odieresis" unicode="ö" d="M32 735 q0 153 58.5 293 q58.5 140 165 247 q106.5 107 245.5 164 q139 57 292 57 q209 0 384 -102.5 q175 -102.5 277 -276 q102 -173.5 102 -382.5 q0 -209 -102 -383.5 q-102 -174.5 -277 -277 q-175 -102.5 -384 -102.5 q-209 0 -382.5 102.5 q-173.5 102.5 -276 277 q-102.5 174.5 -102.5 383.5 ZM151 735 q0 -175 86 -323.5 q86 -148.5 235 -234.5 q149 -86 321 -86 q175 0 323.5 86 q148.5 86 235 235 q86.5 149 86.5 323 q0 170 -86.5 321 q-86.5 151 -235 236.5 q-148.5 85.5 -323.5 85.5 q-172 0 -321 -85.5 q-149 -85.5 -235 -236.5 q-86 -151 -86 -321 ZM567 1613 l0 138 l138 0 l0 -138 l-138 0 ZM875 1613 l0 138 l138 0 l0 -138 l-138 0 Z" /><glyph glyph-name="Ugrave" unicode="ù" d="M65 382 l0 1084 l118 0 l0 -1084 q0 -101 74.5 -182 q74.5 -81 188.5 -81 q103 0 183 73 q80 73 80 190 l0 1084 l119 0 l0 -1084 q0 -101 -52 -190 q-52 -89 -140 -140.5 q-88 -51.5 -190 -51.5 q-101 0 -189.5 51.5 q-88.5 51.5 -140 140 q-51.5 88.5 -51.5 190.5 ZM175 1768 l64 120 l503 -308 l-28 -49 l-539 237 Z" /><glyph glyph-name="Uacute" unicode="ú" d="M65 382 l0 1084 l118 0 l0 -1084 q0 -101 74.5 -182 q74.5 -81 188.5 -81 q103 0 183 73 q80 73 80 190 l0 1084 l119 0 l0 -1084 q0 -101 -52 -190 q-52 -89 -140 -140.5 q-88 -51.5 -190 -51.5 q-101 0 -189.5 51.5 q-88.5 51.5 -140 140 q-51.5 88.5 -51.5 190.5 ZM147 1580 l502 308 l65 -120 l-539 -237 l-28 49 Z" /><glyph glyph-name="Ucircumflex" unicode="û" d="M65 382 l0 1084 l118 0 l0 -1084 q0 -101 74.5 -182 q74.5 -81 188.5 -81 q103 0 183 73 q80 73 80 190 l0 1084 l119 0 l0 -1084 q0 -101 -52 -190 q-52 -89 -140 -140.5 q-88 -51.5 -190 -51.5 q-101 0 -189.5 51.5 q-88.5 51.5 -140 140 q-51.5 88.5 -51.5 190.5 ZM144 1574 l0 110 l302 153 l298 -153 l0 -110 l-298 153 l-302 -153 Z" /><glyph glyph-name="Udieresis" unicode="ü" d="M65 382 l0 1084 l118 0 l0 -1084 q0 -101 74.5 -182 q74.5 -81 188.5 -81 q103 0 183 73 q80 73 80 190 l0 1084 l119 0 l0 -1084 q0 -101 -52 -190 q-52 -89 -140 -140.5 q-88 -51.5 -190 -51.5 q-101 0 -189.5 51.5 q-88.5 51.5 -140 140 q-51.5 88.5 -51.5 190.5 ZM220 1613 l0 138 l138 0 l0 -138 l-138 0 ZM528 1613 l0 138 l138 0 l0 -138 l-138 0 Z" /><glyph glyph-name="agrave" unicode="à" d="M32 440 q0 194 138 329.5 q138 135.5 328 135.5 q196 0 336 -144 l130 121 l0 -882 l-130 119 q-140 -144 -336 -145 q-190 0 -328 138 q-138 138 -138 328 ZM151 440 q0 -147 100 -247 q100 -100 247 -100 q144 0 245.5 101 q101.5 101 101.5 246 q0 144 -101.5 245.5 q-101.5 101.5 -245.5 101.5 q-147 0 -247 -100.5 q-100 -100.5 -100 -246.5 ZM235 1246 l65 121 l502 -309 l-28 -49 l-539 237 Z" /><glyph glyph-name="aacute" unicode="á" d="M32 440 q0 194 138 329.5 q138 135.5 328 135.5 q196 0 336 -144 l130 121 l0 -882 l-130 119 q-140 -144 -336 -145 q-190 0 -328 138 q-138 138 -138 328 ZM151 440 q0 -147 100 -247 q100 -100 247 -100 q144 0 245.5 101 q101.5 101 101.5 246 q0 144 -101.5 245.5 q-101.5 101.5 -245.5 101.5 q-147 0 -247 -100.5 q-100 -100.5 -100 -246.5 ZM198 1058 l503 309 l64 -121 l-539 -237 l-28 49 Z" /><glyph glyph-name="acircumflex" unicode="â" d="M32 440 q0 194 138 329.5 q138 135.5 328 135.5 q196 0 336 -144 l130 121 l0 -882 l-130 119 q-140 -144 -336 -145 q-190 0 -328 138 q-138 138 -138 328 ZM151 440 q0 -147 100 -247 q100 -100 247 -100 q144 0 245.5 101 q101.5 101 101.5 246 q0 144 -101.5 245.5 q-101.5 101.5 -245.5 101.5 q-147 0 -247 -100.5 q-100 -100.5 -100 -246.5 ZM205 1022 l0 110 l302 153 l297 -153 l0 -110 l-297 153 l-302 -153 Z" /><glyph glyph-name="atilde" unicode="ã" d="M32 440 q0 194 138 329.5 q138 135.5 328 135.5 q196 0 336 -144 l130 121 l0 -882 l-130 119 q-140 -144 -336 -145 q-190 0 -328 138 q-138 138 -138 328 ZM151 440 q0 -147 100 -247 q100 -100 247 -100 q144 0 245.5 101 q101.5 101 101.5 246 q0 144 -101.5 245.5 q-101.5 101.5 -245.5 101.5 q-147 0 -247 -100.5 q-100 -100.5 -100 -246.5 ZM203 1080 l0 93 q73 69 189 69 q32 0 108 -39 q76 -39 108 -39 q127 0 194 65 l0 -93 q-67 -65 -194 -65 q-32 0 -107.5 39 q-75.5 39 -108.5 39 q-116 0 -189 -69 Z" /><glyph glyph-name="adieresis" unicode="ä" d="M32 440 q0 194 138 329.5 q138 135.5 328 135.5 q196 0 336 -144 l130 121 l0 -882 l-130 119 q-140 -144 -336 -145 q-190 0 -328 138 q-138 138 -138 328 ZM151 440 q0 -147 100 -247 q100 -100 247 -100 q144 0 245.5 101 q101.5 101 101.5 246 q0 144 -101.5 245.5 q-101.5 101.5 -245.5 101.5 q-147 0 -247 -100.5 q-100 -100.5 -100 -246.5 ZM287 1087 l0 137 l138 0 l0 -137 l-138 0 ZM595 1087 l0 137 l138 0 l0 -137 l-138 0 Z" /><glyph glyph-name="aring" unicode="å" d="M32 440 q0 194 138 329.5 q138 135.5 328 135.5 q196 0 336 -144 l130 121 l0 -882 l-130 119 q-140 -144 -336 -145 q-190 0 -328 138 q-138 138 -138 328 ZM151 440 q0 -147 100 -247 q100 -100 247 -100 q144 0 245.5 101 q101.5 101 101.5 246 q0 144 -101.5 245.5 q-101.5 101.5 -245.5 101.5 q-147 0 -247 -100.5 q-100 -100.5 -100 -246.5 ZM349 1171 q0 65 46.5 111 q46.5 46 111.5 46 q34 0 61 -11 q27 -11 50.5 -34.5 q23.5 -23.5 34.5 -50.5 q11 -27 11 -61 q0 -65 -46.5 -111.5 q-46.5 -46.5 -110.5 -46.5 q-63 0 -110.5 47.5 q-47.5 47.5 -47.5 110.5 ZM412 1171 q0 -39 28 -67 q28 -28 67 -28 q39 0 66.5 28 q27.5 28 27.5 67 q0 39 -27.5 66.5 q-27.5 27.5 -66.5 27.5 q-39 0 -67 -28 q-28 -28 -28 -66 Z" /><glyph glyph-name="egrave" unicode="è" d="M32 440 q0 194 138 329.5 q138 135.5 328 135.5 q121 0 227.5 -60 q106.5 -60 164.5 -153 l-601 -530 q91 -69 209 -69 q99 0 180 49.5 q81 49.5 126 135.5 l104 -58 q-58 -110 -168.5 -178 q-110.5 -68 -241.5 -68 q-190 0 -328 138 q-138 138 -138 328 ZM151 440 q0 -106 58 -194 l515 457 q-97 84 -226 84 q-147 0 -247 -100.5 q-100 -100.5 -100 -246.5 ZM209 1246 l65 121 l502 -309 l-28 -49 l-539 237 Z" /><glyph glyph-name="eacute" unicode="é" d="M32 440 q0 194 138 329.5 q138 135.5 328 135.5 q121 0 227.5 -60 q106.5 -60 164.5 -153 l-601 -530 q91 -69 209 -69 q99 0 180 49.5 q81 49.5 126 135.5 l104 -58 q-58 -110 -168.5 -178 q-110.5 -68 -241.5 -68 q-190 0 -328 138 q-138 138 -138 328 ZM151 440 q0 -106 58 -194 l515 457 q-97 84 -226 84 q-147 0 -247 -100.5 q-100 -100.5 -100 -246.5 ZM172 1058 l503 309 l64 -121 l-539 -237 l-28 49 Z" /><glyph glyph-name="ecircumflex" unicode="ê" d="M32 440 q0 194 138 329.5 q138 135.5 328 135.5 q121 0 227.5 -60 q106.5 -60 164.5 -153 l-601 -530 q91 -69 209 -69 q99 0 180 49.5 q81 49.5 126 135.5 l104 -58 q-58 -110 -168.5 -178 q-110.5 -68 -241.5 -68 q-190 0 -328 138 q-138 138 -138 328 ZM151 440 q0 -106 58 -194 l515 457 q-97 84 -226 84 q-147 0 -247 -100.5 q-100 -100.5 -100 -246.5 ZM203 1022 l0 110 l301 153 l298 -153 l0 -110 l-298 153 l-301 -153 Z" /><glyph glyph-name="edieresis" unicode="ë" d="M32 440 q0 194 138 329.5 q138 135.5 328 135.5 q121 0 227.5 -60 q106.5 -60 164.5 -153 l-601 -530 q91 -69 209 -69 q99 0 180 49.5 q81 49.5 126 135.5 l104 -58 q-58 -110 -168.5 -178 q-110.5 -68 -241.5 -68 q-190 0 -328 138 q-138 138 -138 328 ZM151 440 q0 -106 58 -194 l515 457 q-97 84 -226 84 q-147 0 -247 -100.5 q-100 -100.5 -100 -246.5 ZM287 1087 l0 137 l138 0 l0 -137 l-138 0 ZM595 1087 l0 137 l138 0 l0 -137 l-138 0 Z" /><glyph glyph-name="igrave" unicode="ì" d="M-136 1246 l65 121 l502 -309 l-28 -49 l-539 237 ZM65 0 l0 882 l118 0 l0 -882 l-118 0 Z" /><glyph glyph-name="iacute" unicode="í" d="M-168 1058 l502 309 l65 -121 l-539 -237 l-28 49 ZM65 0 l0 882 l118 0 l0 -882 l-118 0 Z" /><glyph glyph-name="icircumflex" unicode="î" d="M-179 1022 l0 110 l302 153 l297 -153 l0 -110 l-297 153 l-302 -153 ZM65 0 l0 882 l118 0 l0 -882 l-118 0 Z" /><glyph glyph-name="idieresis" unicode="ï" d="M-97 1087 l0 137 l138 0 l0 -137 l-138 0 ZM65 0 l0 882 l118 0 l0 -882 l-118 0 ZM211 1087 l0 137 l138 0 l0 -137 l-138 0 Z" /><glyph glyph-name="ntilde" unicode="ñ" d="M65 0 l0 882 l101 -82 q101 106 250 105 q149 0 250 -101 q101 -101 101 -250 l0 -554 l-118 0 l0 554 q0 101 -68 167 q-68 66 -165 66 q-97 0 -165 -68 q-68 -68 -68 -165 l0 -554 l-118 0 ZM112 1080 l0 93 q73 69 190 69 q32 0 107.5 -39 q75.5 -39 107.5 -39 q127 0 194 65 l0 -93 q-67 -65 -194 -65 q-32 0 -107.5 39 q-75.5 39 -107.5 39 q-116 0 -190 -69 Z" /><glyph glyph-name="ograve" unicode="ò" d="M32 440 q0 194 138 329.5 q138 135.5 328 135.5 q194 0 330 -135.5 q136 -135.5 136 -329.5 q0 -190 -136 -328 q-136 -138 -330 -138 q-190 0 -328 138 q-138 138 -138 328 ZM151 440 q0 -147 100 -247 q100 -100 247 -100 q144 0 245.5 101 q101.5 101 101.5 246 q0 144 -101.5 245.5 q-101.5 101.5 -245.5 101.5 q-147 0 -247 -100.5 q-100 -100.5 -100 -246.5 ZM235 1246 l65 121 l502 -309 l-28 -49 l-539 237 Z" /><glyph glyph-name="oacute" unicode="ó" d="M32 440 q0 194 138 329.5 q138 135.5 328 135.5 q194 0 330 -135.5 q136 -135.5 136 -329.5 q0 -190 -136 -328 q-136 -138 -330 -138 q-190 0 -328 138 q-138 138 -138 328 ZM151 440 q0 -147 100 -247 q100 -100 247 -100 q144 0 245.5 101 q101.5 101 101.5 246 q0 144 -101.5 245.5 q-101.5 101.5 -245.5 101.5 q-147 0 -247 -100.5 q-100 -100.5 -100 -246.5 ZM185 1058 l503 309 l64 -121 l-539 -237 l-28 49 Z" /><glyph glyph-name="ocircumflex" unicode="ô" d="M32 440 q0 194 138 329.5 q138 135.5 328 135.5 q194 0 330 -135.5 q136 -135.5 136 -329.5 q0 -190 -136 -328 q-136 -138 -330 -138 q-190 0 -328 138 q-138 138 -138 328 ZM151 440 q0 -147 100 -247 q100 -100 247 -100 q144 0 245.5 101 q101.5 101 101.5 246 q0 144 -101.5 245.5 q-101.5 101.5 -245.5 101.5 q-147 0 -247 -100.5 q-100 -100.5 -100 -246.5 ZM198 1022 l0 110 l302 153 l298 -153 l0 -110 l-298 153 l-302 -153 Z" /><glyph glyph-name="otilde" unicode="õ" d="M32 440 q0 194 138 329.5 q138 135.5 328 135.5 q194 0 330 -135.5 q136 -135.5 136 -329.5 q0 -190 -136 -328 q-136 -138 -330 -138 q-190 0 -328 138 q-138 138 -138 328 ZM151 440 q0 -147 100 -247 q100 -100 247 -100 q144 0 245.5 101 q101.5 101 101.5 246 q0 144 -101.5 245.5 q-101.5 101.5 -245.5 101.5 q-147 0 -247 -100.5 q-100 -100.5 -100 -246.5 ZM198 1080 l0 93 q73 69 190 69 q32 0 107.5 -39 q75.5 -39 108.5 -39 q127 0 194 65 l0 -93 q-67 -65 -194 -65 q-32 0 -108 39 q-76 39 -108 39 q-116 0 -190 -69 Z" /><glyph glyph-name="odieresis" unicode="ö" d="M32 440 q0 194 138 329.5 q138 135.5 328 135.5 q194 0 330 -135.5 q136 -135.5 136 -329.5 q0 -190 -136 -328 q-136 -138 -330 -138 q-190 0 -328 138 q-138 138 -138 328 ZM151 440 q0 -147 100 -247 q100 -100 247 -100 q144 0 245.5 101 q101.5 101 101.5 246 q0 144 -101.5 245.5 q-101.5 101.5 -245.5 101.5 q-147 0 -247 -100.5 q-100 -100.5 -100 -246.5 ZM278 1087 l0 137 l138 0 l0 -137 l-138 0 ZM586 1087 l0 137 l138 0 l0 -137 l-138 0 Z" /><glyph glyph-name="ugrave" unicode="ù" d="M65 328 l0 554 l118 0 l0 -554 q0 -97 70 -165 q70 -68 163 -68 q101 0 167 70 q66 70 66 163 l0 554 l118 0 l0 -882 l-101 82 q-101 -106 -250 -106 q-149 0 -250 101.5 q-101 101.5 -101 250.5 ZM144 1246 l65 121 l502 -309 l-28 -49 l-539 237 Z" /><glyph glyph-name="uacute" unicode="ú" d="M65 328 l0 554 l118 0 l0 -554 q0 -97 70 -165 q70 -68 163 -68 q101 0 167 70 q66 70 66 163 l0 554 l118 0 l0 -882 l-101 82 q-101 -106 -250 -106 q-149 0 -250 101.5 q-101 101.5 -101 250.5 ZM123 1058 l502 309 l65 -121 l-539 -237 l-28 49 Z" /><glyph glyph-name="ucircumflex" unicode="û" d="M65 328 l0 554 l118 0 l0 -554 q0 -97 70 -165 q70 -68 163 -68 q101 0 167 70 q66 70 66 163 l0 554 l118 0 l0 -882 l-101 82 q-101 -106 -250 -106 q-149 0 -250 101.5 q-101 101.5 -101 250.5 ZM114 1022 l0 110 l302 153 l298 -153 l0 -110 l-298 153 l-302 -153 Z" /><glyph glyph-name="udieresis" unicode="ü" d="M65 328 l0 554 l118 0 l0 -554 q0 -97 70 -165 q70 -68 163 -68 q101 0 167 70 q66 70 66 163 l0 554 l118 0 l0 -882 l-101 82 q-101 -106 -250 -106 q-149 0 -250 101.5 q-101 101.5 -101 250.5 ZM192 1087 l0 137 l138 0 l0 -137 l-138 0 ZM500 1087 l0 137 l138 0 l0 -137 l-138 0 Z" /><glyph glyph-name="Oslash" unicode="øÿ" d="M65 328 l0 554 l118 0 l0 -554 q0 -97 70 -165 q70 -68 163 -68 q101 0 167 70 q66 70 66 163 l0 554 l118 0 l0 -1087 q0 -149 -104.5 -253.5 q-104.5 -104.5 -252.5 -104.5 q-186 0 -294 153 l93 69 q69 -103 201 -103 q108 0 173.5 71 q65.5 71 65.5 168 l0 270 q-99 -88 -233 -89 q-149 0 -250 101.5 q-101 101.5 -101 250.5 ZM192 1087 l0 137 l138 0 l0 -137 l-138 0 ZM500 1087 l0 137 l138 0 l0 -137 l-138 0 Z" /><glyph glyph-name="Ydieresis" unicode="&#x178;" d="M0 1466 l129 0 l276 -649 l274 649 l129 0 l-345 -813 l0 -653 l-118 0 l0 653 l-345 813 ZM183 1613 l0 138 l138 0 l0 -138 l-138 0 ZM492 1613 l0 138 l137 0 l0 -138 l-137 0 Z" /><glyph glyph-name="circumflex" unicode="&#x2c6;" d="M65 1574 l0 110 l301 153 l298 -153 l0 -110 l-298 153 l-301 -153 Z" /><glyph glyph-name="divide" unicode="÷&#x2dc;" d="M65 1658 l0 93 q73 69 189 68 q32 0 108 -38.5 q76 -38.5 108 -38.5 q127 0 194 65 l0 -93 q-67 -65 -194 -65 q-32 0 -107.5 39 q-75.5 39 -108.5 39 q-116 0 -189 -69 Z" /><glyph glyph-name="uni2000" unicode="&#x2000;" d="" /><glyph glyph-name="uni2001" unicode="&#x2001;" d="" /><glyph glyph-name="uni2002" unicode="&#x2002;" d="" /><glyph glyph-name="uni2003" unicode="&#x2003;" d="" /><glyph glyph-name="uni2004" unicode="&#x2004;" d="" /><glyph glyph-name="uni2005" unicode="&#x2005;" d="" /><glyph glyph-name="uni2006" unicode="&#x2006;" d="" /><glyph glyph-name="uni2007" unicode="&#x2007;" d="" /><glyph glyph-name="uni2008" unicode="&#x2008;" d="" /><glyph glyph-name="uni2009" unicode="&#x2009;" d="" /><glyph glyph-name="uni200A" unicode="&#x200a;" d="" /><glyph glyph-name="uni2010" unicode="&#x2010;" d="M65 388 l0 119 l403 0 l0 -119 l-403 0 Z" /><glyph glyph-name="uni2011" unicode="&#x2011;" d="M65 388 l0 119 l403 0 l0 -119 l-403 0 Z" /><glyph glyph-name="figuredash" unicode="&#x2012;" d="M65 388 l0 119 l403 0 l0 -119 l-403 0 Z" /><glyph glyph-name="Eth" unicode="ð&#x2013;" d="M65 388 l0 119 l603 0 l0 -119 l-603 0 Z" /><glyph glyph-name="emdash" unicode="&#x2014;" d="M65 388 l0 119 l1022 0 l0 -119 l-1022 0 Z" /><glyph glyph-name="quoteleft" unicode="&#x2018;" d="M65 1345 l0 121 l51 0 l69 112 l0 -233 l-120 0 Z" /><glyph glyph-name="quoteright" unicode="&#x2019;" d="M65 1375 l0 121 l120 0 l0 -233 l-69 112 l-51 0 Z" /><glyph glyph-name="quotedblleft" unicode="&#x201c;" d="M65 1345 l0 121 l51 0 l69 112 l0 -233 l-120 0 ZM233 1345 l0 121 l52 0 l69 112 l0 -233 l-121 0 Z" /><glyph glyph-name="quotedblright" unicode="&#x201d;" d="M65 1375 l0 121 l120 0 l0 -233 l-69 112 l-51 0 ZM233 1375 l0 121 l121 0 l0 -233 l-69 112 l-52 0 Z" /><glyph glyph-name="yen" unicode="¥&#x2022;" d="M32 860 q0 80 56 136 q56 56 136 56 q56 0 98 -26 q42 -26 68 -68 q26 -42 26 -98 q0 -80 -56 -136 q-56 -56 -136 -56 q-80 0 -136 56 q-56 56 -56 136 Z" /><glyph glyph-name="ellipsis" unicode="&#x2026;" d="M65 0 l0 119 l118 0 l0 -119 l-118 0 ZM319 0 l0 119 l119 0 l0 -119 l-119 0 ZM573 0 l0 119 l119 0 l0 -119 l-119 0 Z" /><glyph glyph-name="uni202F" unicode="&#x202f;" d="" /><glyph glyph-name="uni205F" unicode="&#x205f;" d="" /><glyph glyph-name="uni25FC" unicode="&#x25fc;" d="M0 0 l0 884 l884 0 l0 -884 l-884 0 Z" /><glyph glyph-name="Thorn" unicode="þ&#xfb01;" d="M32 761 l0 119 l162 0 l0 265 q0 88 43 161.5 q43 73.5 116.5 116.5 q73.5 43 161.5 43 q103 0 190 -63 l-80 -88 q-47 32 -110 32 q-84 0 -143 -59 q-59 -59 -59 -143 l0 -265 l383 2 l0 -882 l-118 0 l0 761 l-265 0 l0 -761 l-119 0 l0 761 l-162 0 Z" /><glyph glyph-name="germandbls" unicode="ß&#xfb02;" d="M32 761 l0 119 l162 0 l0 265 q0 88 43 161.5 q43 73.5 116.5 116.5 q73.5 43 161.5 43 l192 0 l0 -1466 l-118 0 l0 1347 l-74 0 q-84 0 -143 -59 q-59 -59 -59 -143 l0 -265 l159 0 l0 -119 l-159 0 l0 -761 l-119 0 l0 761 l-162 0 Z" /></font>
</defs>
</svg>
