<?xml version="1.0" standalone="no"?><!DOCTYPE svg PUBLIC "-//W3C//DTD SVG 1.1//EN" "http://www.w3.org/Graphics/SVG/1.1/DTD/svg11.dtd" ><svg xmlns="http://www.w3.org/2000/svg"><metadata></metadata><defs><font id="Vonique 92:Version 1.00" horiz-adv-x="2964"><font-face font-family="Vonique 92" font-weight="400" font-stretch="normal" units-per-em="2048" panose-1="2 0 5 0 0 0 0 9 0 0" ascent="2038" descent="-1382" x-height="0" bbox="-14 -1342 2849 2038" underline-thickness="150" underline-position="-217" unicode-range="U+0000-fb04" /><missing-glyph horiz-adv-x="748" d="M68 0 l0 1365 l544 0 l0 -1365 l-544 0 ZM136 68 l408 0 l0 1229 l-408 0 l0 -1229 Z" /><glyph glyph-name=".null" unicode="" d="" /><glyph glyph-name="nonmarkingreturn" unicode="" d="" /><glyph glyph-name=".null" unicode="" d="" /><glyph glyph-name="space" unicode=" " d="" /><glyph glyph-name="exclam" unicode="!" d="M0 74 q0 46 32.5 78.5 q32.5 32.5 78.5 32.5 q45 0 77 -33 q33 -32 33 -78 q0 -46 -33 -77 q-32 -33 -77 -33 q-46 0 -79 33 q-32 32 -32 77 ZM37 281 l1 1479 l142 0 l-1 -1479 l-142 0 Z" /><glyph glyph-name="quotedbl" unicode="&quot;" d="M0 971 l0 482 l149 0 l-1 -482 l-148 0 ZM215 971 l0 482 l149 0 l-1 -482 l-148 0 Z" /><glyph glyph-name="numbersign" unicode="#" d="M0 489 l0 139 l213 0 l64 263 l-185 0 l1 139 l217 0 l86 359 l143 0 l-85 -359 l255 0 l86 359 l143 0 l-85 -359 l188 0 l-1 -139 l-221 0 l-64 -263 l193 0 l0 -139 l-226 0 l-110 -459 l-144 0 l111 459 l-256 0 l-110 -459 l-144 0 l111 459 l-180 0 ZM356 628 l256 0 l63 263 l-255 0 l-64 -263 Z" /><glyph glyph-name="dollar" unicode="$" d="M11 836 l0 22 l136 0 q0 -54 23.5 -80.5 q23.5 -26.5 62.5 -26.5 q36 0 61.5 25.5 q25.5 25.5 25.5 61.5 q0 36 -23 56 q-24 21 -98 40 q-75 20 -120 54 q-66 65 -68 158 q0 91 66 157 q45 45 85 55 l0 96 l143 0 l0 -96 q41 -10 86 -55 q65 -67 65 -157 l0 -34 l-140 0 q4 25 4 35 q1 37 -25 62.5 q-26 25.5 -62 25.5 q-36 0 -61 -25.5 q-25 -25.5 -26 -62.5 q0 -34 23 -59 q47 -23 118 -42 q78 -19 123.5 -71 q45.5 -52 45.5 -139 q0 -92 -65 -157 q-45 -45 -86 -56 l0 -95 l-143 0 l0 95 q-41 11 -85 56 q-66 65 -66 157 Z" /><glyph glyph-name="percent" unicode="%" d="M-14 1206 q0 86 62 148 q62 62 148 62 q87 0 149 -62 q62 -62 62 -148 q0 -87 -62 -149 q-62 -62 -149 -62 q-86 0 -148 62 q-62 62 -62 149 ZM118 1208 q0 -34 23 -57.5 q23 -23.5 57 -23.5 q33 0 57 23.5 q24 23.5 24 57.5 q0 33 -24 56.5 q-24 23.5 -57 23.5 q-34 0 -57.5 -23 q-23.5 -23 -22.5 -57 ZM121 575 l462 879 l150 0 l-461 -879 l-151 0 ZM452 800 q0 86 62 148 q62 62 149 62 q86 0 148 -62 q62 -62 62 -148 q2 -87 -62 -149 q-62 -62 -148 -62 q-87 0 -149 62 q-60 60 -62 149 ZM583 801 q0 -33 24 -57 q24 -24 58 -24 q33 0 56.5 24 q23.5 24 23.5 57 q1 34 -23 57.5 q-24 23.5 -58 23.5 q-33 0 -56.5 -23.5 q-23.5 -23.5 -24.5 -57.5 Z" /><glyph glyph-name="ampersand" unicode="&amp;" d="M0 570 q0 134 69 249 q66 113 162 168 q-22 43 -22 113 q0 119 82 201 q83 83 199 83 q116 0 199 -83 q83 -83 83 -201 q0 -40 -18 -92 l-154 0 q31 58 31 92 q0 58 -42 101 q-41 39 -99 39 q-57 0 -99 -39 q-40 -43 -40 -101 q0 -1 0.5 -2.5 q0.5 -1.5 1 -4.5 q0.5 -3 0.5 -6 q14 -101 133 -138 q-105 -36 -180 -85 q-76 -46 -120 -123 q-45 -79 -45 -171 q0 -146 102 -248 q102 -102 247 -102 q144 0 247 102 q102 102 102 248 q0 42 -7 66 l-122 0 q-124 0 -195 -98 l-161 0 l38 58 q112 175 318 175 l101 0 q113 0 192 93 l119 -61 q-52 -91 -152 -132 q11 -46 11 -101 q0 -205 -144 -349 q-142 -145 -347 -145 q-204 0 -346 145 q-144 144 -144 349 Z" /><glyph glyph-name="quotesingle" unicode="&#39;" d="M0 1505 l265 449 l167 0 l-273 -449 l-159 0 Z" /><glyph glyph-name="parenleft" unicode="(" d="M41 536 q-41 226 37 458 q91 271 286 467 l100 -99 q-180 -183 -258 -423 q-147 -462 258 -868 l-100 -99 q-269 269 -323 564 Z" /><glyph glyph-name="parenright" unicode=")" d="M0 71 q405 406 258 868 q-76 240 -258 423 l99 99 q195 -195 287 -467 q78 -232 37 -458 q-54 -296 -324 -564 l-99 99 Z" /><glyph glyph-name="asterisk" unicode="*" d="M0 1008 l0 142 l202 0 l-141 143 l100 100 l142 -142 l0 202 l142 0 l0 -202 l144 142 l100 -100 l-143 -143 l202 0 l0 -142 l-202 0 l142 -143 l-100 -100 l-143 142 l0 -202 l-142 0 l0 202 l-143 -143 l-100 101 l142 143 l-202 0 Z" /><glyph glyph-name="plus" unicode="+" d="M0 643 l0 145 l316 0 l0 316 l145 0 l0 -316 l316 0 l0 -145 l-316 0 l0 -316 l-145 0 l0 316 l-316 0 Z" /><glyph glyph-name="comma" unicode="," d="M0 -118 l178 296 l167 0 l-186 -296 l-159 0 Z" /><glyph glyph-name="hyphen" unicode="-" d="M0 643 l0 145 l777 0 l0 -145 l-777 0 Z" /><glyph glyph-name="period" unicode="." d="M0 74 q0 46 32.5 78.5 q32.5 32.5 78.5 32.5 q45 0 77 -33 q33 -32 33 -78 q0 -46 -33 -77 q-32 -33 -77 -33 q-46 0 -79 33 q-32 32 -32 77 Z" /><glyph glyph-name="slash" unicode="/" d="M0 -20 l766 1472 l160 0 l-766 -1472 l-160 0 Z" /><glyph glyph-name="zero" unicode="0" d="M0 719 q2 313 177 534 q179 225 430 225 q253 0 430 -225 q176 -222 175 -534 q1 -312 -175 -534 q-177 -225 -430 -225 q-251 0 -430 225 q-175 221 -177 534 ZM149 719 q2 -255 137 -434 q134 -176 321 -176 q188 0 322 176 q137 180 135 434 q2 254 -135 434 q-134 176 -322 176 q-187 0 -321 -176 q-135 -179 -137 -434 Z" /><glyph glyph-name="one" unicode="1" d="M0 1301 l0 155 l250 0 l0 -2 l2 0 l0 -1473 l-154 0 l0 1320 l-98 0 Z" /><glyph glyph-name="two" unicode="2" d="M9 -16 l728 592 q229 175 234 359 q4 183 -110 297 q-115 114 -280 114 q-143 0 -251 -90 q-110 -89 -137 -237 l-143 1 q32 210 180 337 q152 131 351 131 q222 0 378 -156 q159 -155 151 -403 q-8 -248 -233 -424 l-462 -377 l676 -1 l0 -145 l-1082 2 Z" /><glyph glyph-name="three" unicode="3" d="M0 434 l143 0 q27 -148 137 -237 q108 -90 251 -90 q164 0 280 113 q114 114 114 274 q-1 122 -72 222 q-73 111 -217 188 l-90 59 l90 96 q58 73 58 123 q0 67 -47 114 q-49 47 -115 47 q-177 -11 -148 -250 l-143 0 q-14 53 -14 89 q0 12 1 22 q9 118 94 199 q88 82 209 82 q126 0 215 -89 q90 -89 90 -214 q0 -131 -68 -201 q66 -38 140 -114 q159 -155 159 -373 q0 -219 -158 -374 q-157 -155 -378 -155 q-199 0 -351 131 q-148 129 -180 338 Z" /><glyph glyph-name="four" unicode="4" d="M68 507 l998 988 l-1 -855 l159 0 l0 -134 l-159 0 l0 -533 l-142 0 l0 533 l-855 1 ZM397 639 l523 0 l2 518 l-525 -518 Z" /><glyph glyph-name="five" unicode="5" d="M0 431 l152 0 q50 -141 164 -221 q116 -82 263 -82 q186 0 316 124 q129 124 129 297 q0 174 -130 297 q-130 124 -322 124 l-1 1 l-309 0 l0 23 l0 435 l0 23 l496 0 l0 -144 l-352 0 l1 -190 l155 0 q263 0 436 -167 q174 -167 174 -402 q1 -236 -175 -403 q-172 -166 -418 -166 q-204 0 -364 121 q-156 118 -215 330 Z" /><glyph glyph-name="six" unicode="6" d="M11 609 q11 259 204 435 l448 410 l214 0 l-261 -238 q60 11 212 -38 q160 -50 272 -174 q176 -192 164 -451 q-10 -259 -202 -435 q-192 -175 -452 -164 q-259 10 -435 203 q-175 191 -164 452 ZM159 605 q-10 -201 127 -349 q133 -148 336 -157 q201 -9 349 127 q147 135 156 336 q9 202 -127 350 q-134 147 -336 156 q-200 9 -348 -128 q-148 -133 -157 -335 Z" /><glyph glyph-name="seven" unicode="7" d="M0 1310 l0 145 l1115 0 l-88 -135 l-691 -1340 l-170 0 l686 1330 l-852 0 Z" /><glyph glyph-name="eight" unicode="8" d="M158 108 q-158 156 -158 376 q0 220 159 376 q79 78 152 107 q-80 71 -79 208 q-1 127 89 217 q91 90 218 90 q128 0 218 -90 q90 -89 92 -217 q-1 -138 -82 -208 q123 -48 215 -181 q96 -136 96 -302 q0 -220 -158 -376 q-157 -157 -381 -157 q-224 0 -381 157 ZM152 484 q0 -158 113 -269 q113 -112 274 -112 q162 0 274 112 q114 111 114 269 q0 156 -114 269 q-113 111 -274 111 q-161 0 -274 -111 q-113 -113 -113 -269 ZM379 1175 q0 -66 46 -112 q50 -47 115 -47 q65 0 112 47 q49 48 49 112 q-2 67 -47 112 q-49 47 -114 47 q-65 0 -114 -47 q-48 -47 -47 -112 Z" /><glyph glyph-name="nine" unicode="9" d="M11 881 q12 259 203 435 q192 175 452 164 q258 -11 434 -203 q175 -191 164 -452 q-10 -259 -204 -435 l-447 -410 l-214 0 l261 238 q-60 -11 -212 38 q-158 49 -273 173 q-175 192 -164 452 ZM149 881 q-10 -201 127 -349 q133 -148 336 -157 q201 -9 349 127 q147 135 156 336 q9 202 -127 350 q-134 147 -336 156 q-200 9 -348 -128 q-148 -133 -157 -335 Z" /><glyph glyph-name="colon" unicode=":" d="M0 484 q1 46 33 78.5 q32 32.5 78 32.5 q45 0 78 -33 q33 -32 32 -78 q0 -45 -33 -78 q-32 -32 -77 -32 q-45 0 -79 32 q-32 34 -32 78 ZM1 949 q-1 46 31 78 q33 33 79 33 q45 0 77.5 -32 q32.5 -32 33.5 -79 q-2 -47 -34 -78 q-32 -32 -77 -32 q-45 0 -79 32 q-32 34 -31 78 Z" /><glyph glyph-name="semicolon" unicode=";" d="M0 289 l178 296 l167 0 l-186 -296 l-159 0 ZM119 949 q0 46 32.5 78.5 q32.5 32.5 78.5 32.5 q46 0 78.5 -32.5 q32.5 -32.5 32.5 -78.5 q0 -45 -33 -78 q-32 -32 -78 -32 q-45 0 -79 32 q-32 34 -32 78 Z" /><glyph glyph-name="less" unicode="&lt;" d="M0 724 l1037 538 l0 -170 q-375 -194 -396 -205 q-75 -39 -154.5 -80.5 q-79.5 -41.5 -114.5 -59.5 q-35 -18 -45 -23 q86 -44 710 -367 l0 -170 l-1037 537 Z" /><glyph glyph-name="equal" unicode="=" d="M0 804 l0 143 l815 0 l0 -143 l-815 0 ZM1 524 l0 143 l815 0 l0 -143 l-815 0 Z" /><glyph glyph-name="greater" unicode="&gt;" d="M0 187 l0 170 q680 352 709 367 q-10 5 -45 23 q-35 18 -114.5 59.5 q-79.5 41.5 -154.5 80.5 q-255 131 -395 205 l0 170 l1037 -538 l-1037 -537 Z" /><glyph glyph-name="question" unicode="?" d="M1 1184 q-1 234 175 404 q178 170 426 170 q250 0 426 -169 q177 -168 177 -410 q0 -224 -157 -390 q-156 -163 -371 -183 l0 -320 l-138 0 l1 455 l48 0 q206 0 340 128 q136 130 136 310 q0 179 -135 310 q-134 128 -327 128 q-192 0 -326 -127 q-134 -129 -128 -305 l-147 -1 ZM502 74 q0 44 31 75 q31 31 75 31 q44 0 75 -31 q31 -31 31 -75 q0 -43 -31 -74 q-31 -31 -75 -31 q-44 0 -75 31 q-31 31 -31 74 Z" /><glyph glyph-name="at" unicode="@" d="M4 716 q0 152 58 289 q56 137 162 243 q106 106 243 162 q137 58 288 58 q152 0 289 -58 q136 -56 243 -162 q107 -106 162 -243 q58 -137 58 -289 q0 -64 -10 -117 q-9 -54 -26 -81 q-29 -62 -90 -99 q-61 -39 -134 -39 q-64 0 -122 32 q-56 32 -69 52 q-33 -47 -118 -93 q-86 -45 -183 -45 q-80 0 -152 31 q-67 28 -124 83 q-55 57 -83 124 q-31 72 -31 152 q0 81 31 153 q28 67 83 124 q57 55 124 83 q72 31 152 31 q81 0 153 -31 q67 -28 124 -83 q55 -57 83 -124 q31 -72 31 -153 l0 -18 q-8 -164 102 -174 q38 0 72 29 q15 15 24 29 q8 13 10 29 q1 3 1.5 8 q0.5 5 0.5 8 l3 21 q3 27 3 39 l0 1 l1 28 q0 122 -45 233 q-46 111 -132 198 q-87 85 -198 132 q-111 45 -233 45 q-121 0 -232 -45 q-111 -47 -198 -132 q-85 -87 -132 -198 q-45 -111 -45 -233 q0 -121 45 -232 q47 -111 132 -198 q87 -86 198 -132 q111 -45 232 -45 q122 0 233 45 q111 46 198 132 q10 10 36 39 l96 -109 l-31 -31 q-107 -107 -243 -162 q-137 -58 -289 -58 q-151 0 -288 58 q-137 55 -243 162 q-106 107 -162 243 q-58 137 -58 288 ZM509 716 q0 -50 19 -95 q20 -47 53 -79 q32 -33 79 -53 q45 -19 95 -19 q43 0 83 14 q38 13 72 41 q33 26 55 62 q24 38 31 77 q1 9 5 22 q1 10 1 30 q0 51 -19 96 q-20 47 -53 79 q-32 33 -79 53 q-45 19 -96 19 q-50 0 -95 -19 q-47 -20 -79 -53 q-33 -32 -53 -79 q-19 -45 -19 -96 Z" /><glyph glyph-name="A" unicode="a" d="M0 -22 l697 1327 l0 1 l92 172 l86 -164 l701 -1336 l-162 0 l-625 1184 l-631 -1184 l-158 0 Z" /><glyph glyph-name="B" unicode="b" d="M0 -20 l0 1475 l619 0 q112 0 198 -55 q122 -74 122 -220 q0 -140 -79 -192 q283 -112 283 -471 q0 -333 -279 -468 q-142 -69 -281 -69 l-583 0 ZM144 123 l439 0 q111 2 213 52 q199 99 199 343 q1 14 1 28 q0 258 -408 433 q132 71 177 132 q23 31 25 69 q0 78 -76 109 q-44 18 -95 18 l-475 0 l0 -1184 Z" /><glyph glyph-name="C" unicode="c" d="M5 719 q0 312 222 534 q222 222 535 222 q262 0 467 -162 q203 -157 271 -421 l-143 0 q-62 201 -223 323 q-163 124 -372 124 q-259 0 -440 -181 q-181 -181 -181 -439 q0 -259 181 -440 q181 -181 440 -181 q202 0 366 120 q160 117 226 312 l141 0 q-70 -256 -272 -411 q-203 -157 -462 -157 q-313 0 -534 222 q-222 222 -222 535 Z" /><glyph glyph-name="D" unicode="d" d="M0 -19 l1 1474 l209 0 l137 -1 q142 0 232 -18 q216 -43 365 -180 q207 -193 207 -539 q0 -345 -208 -538 q-145 -136 -375 -181 q-98 -18 -180 -18 q-21 0 -42 1 l-241 0 l-105 0 ZM145 129 l207 0 q322 0 491 159 q160 150 160 429 q0 281 -160 431 q-120 111 -315 145 q-97 13 -178 13 l-205 0 l0 -1177 Z" /><glyph glyph-name="E" unicode="e" d="M0 -20 l0 1475 l1136 0 l0 -147 l-987 0 l0 -1182 l987 0 l0 -146 l-1136 0 ZM274 388 l0 145 l858 0 l0 -145 l-858 0 Z" /><glyph glyph-name="F" unicode="f" d="M0 -20 l0 1475 l1136 0 l0 -147 l-987 0 l0 -1329 l-149 1 ZM274 388 l0 145 l858 0 l0 -145 l-858 0 Z" /><glyph glyph-name="G" unicode="g" d="M5 719 q0 312 222 534 q222 222 535 222 q262 0 467 -162 q203 -157 271 -421 l-143 0 q-62 201 -223 323 q-163 124 -372 124 q-259 0 -440 -181 q-181 -181 -181 -439 q0 -259 181 -440 q181 -181 440 -181 q202 0 366 120 q160 117 226 312 l289 0 l0 -143 l-198 0 q-69 -149 -222 -268 q-203 -157 -462 -157 q-313 0 -534 222 q-222 222 -222 535 Z" /><glyph glyph-name="H" unicode="h" d="M0 -20 l0 1475 l145 0 l0 -923 l947 0 l0 923 l145 0 l0 -1475 l-145 0 l0 408 l-947 0 l0 -408 l-145 0 Z" /><glyph glyph-name="I" unicode="i" d="M0 -20 l0 1475 l145 0 l0 -1475 l-145 0 Z" /><glyph glyph-name="J" unicode="j" d="M0 -440 l156 0 q61 -141 211 -252 q151 -112 339 -112 q235 0 404 167 q166 166 166 404 l0 1687 l150 0 l0 -1687 q0 -3 0 -6 q0 -295 -210 -505 q-212 -210 -509 -210 q-248 0 -444 151 q-189 147 -263 363 Z" /><glyph glyph-name="K" unicode="k" d="M0 -25 l0 1475 l145 0 l0 -1475 l-145 0 ZM269 520 l940 937 l205 0 l-941 -937 l961 -961 l-204 0 l-961 961 Z" /><glyph glyph-name="L" unicode="l" d="M0 -20 l0 1475 l145 0 l0 -1330 l986 0 l0 -145 l-1131 0 Z" /><glyph glyph-name="M" unicode="m" d="M0 -20 l0 1530 l733 -1260 l726 1257 l2 -1527 l-139 0 l0 984 l-595 -1003 l-590 993 l0 -974 l-137 0 Z" /><glyph glyph-name="N" unicode="n" d="M0 -20 l0 1503 l1191 -1184 l0 1156 l145 0 l0 -1486 l-1191 1165 l0 -1154 l-145 0 Z" /><glyph glyph-name="O" unicode="o" d="M0 720 q2 314 223 535 q222 222 535 222 q313 0 535 -222 q221 -221 221 -532 q0 -316 -222 -538 q-222 -222 -535 -222 q-313 0 -535 222 q-222 222 -222 535 ZM323 1154 q-179 -181 -179 -434 q0 -253 179 -434 q181 -179 434 -179 q253 0 434 179 q179 181 179 434 q0 253 -179 434 q-181 179 -434 179 q-253 0 -434 -179 Z" /><glyph glyph-name="P" unicode="p" d="M0 -20 l0 1475 l473 0 q140 0 281 -69 q280 -136 280 -470 q0 -334 -280 -470 q-142 -68 -281 -68 l-328 0 l0 -398 l-145 0 ZM145 521 l328 0 q112 2 213 53 q199 97 199 342 q0 244 -198 343 q-104 52 -214 52 l-328 0 l0 -790 Z" /><glyph glyph-name="Q" unicode="q" d="M0 720 q2 314 223 535 q222 222 535 222 q313 0 535 -222 q221 -221 221 -532 q0 -316 -222 -538 q-222 -222 -535 -222 q-313 0 -535 222 q-222 222 -222 535 ZM323 1154 q-179 -181 -179 -434 q0 -253 179 -434 q181 -179 434 -179 q253 0 434 179 q179 181 179 434 q0 253 -179 434 q-181 179 -434 179 q-253 0 -434 -179 ZM242 -47 l72 43 l49 32 l33 -50 q21 -31 55 -59 q73 -55 167 -55 l287 0 q146 0 259 -88 q58 -47 87 -95 l30 -50 l-72 -44 l-49 -30 l-32 49 q-19 30 -56 58 q-71 55 -166 55 l-287 0 q-146 0 -258 88 q-61 48 -89 95 l-30 51 Z" /><glyph glyph-name="R" unicode="r" d="M0 -20 l0 1475 l105 0 l371 0 q140 0 281 -69 q279 -136 279 -470 q0 -283 -202 -425 q-128 -89 -264 -105 l417 -406 l-212 0 l-414 403 l-140 138 l255 0 q110 0 214 52 q198 99 198 343 q0 244 -198 343 q-103 52 -214 52 l-331 0 l0 -1331 l-145 0 Z" /><glyph glyph-name="S" unicode="s" d="M0 497 l143 0 q5 -177 119 -287 q116 -111 275 -111 q163 0 277 114 q116 113 116 272 q0 162 -115 274 q-116 113 -265 121 q-147 7 -212 66 q-9 7 -17 15 q-89 87 -89 209 q0 3 0 5 q0 127 90 215 q89 89 214 89 q125 0 217 -89 l55 -55 l-123 -93 q-13 27 -34 47 q-49 47 -115 47 q-66 0 -113 -47 q-47 -47 -47 -114 q0 -65 47 -112 q36 -38 134 -44 q98 -6 173 -39 q153 -58 246 -192 q98 -137 98 -303 q0 -218 -158 -373 q-158 -156 -379 -156 q-220 0 -376 153 q-156 151 -161 388 Z" /><glyph glyph-name="T" unicode="t" d="M0 1309 l0 145 l1119 0 l0 -145 l-488 0 l0 -1329 l-145 -1 l0 1330 l-486 0 Z" /><glyph glyph-name="U" unicode="u" d="M0 723 l0 734 l141 0 l0 -734 q3 -250 159 -427 q154 -175 373 -175 q218 0 374 174 q155 175 160 425 l0 737 l141 0 l0 -736 q-5 -313 -200 -532 q-196 -222 -474 -222 q-279 0 -475 223 q-196 220 -199 533 Z" /><glyph glyph-name="V" unicode="v" d="M0 1455 l162 0 l625 -1184 l631 1184 l158 0 l-697 -1327 l0 -1 l-92 -172 l-86 164 l-701 1336 Z" /><glyph glyph-name="W" unicode="w" d="M0 1456 l166 0 l618 -1181 l85 161 l-534 1020 l166 0 l451 -860 l449 860 l165 0 l-530 -1020 l84 -161 l616 1181 l166 0 l-782 -1499 l-168 320 l-168 -321 l-784 1500 Z" /><glyph glyph-name="X" unicode="x" d="M0 1455 l170 0 l479 -845 l478 845 l171 0 l-564 -996 l271 -479 l-170 0 l-186 330 l-186 -330 l-171 0 l272 479 l-564 996 Z" /><glyph glyph-name="Y" unicode="y" d="M0 1455 l160 0 l442 -851 l443 851 l159 0 l-528 -1010 l-1 -465 l-145 0 l1 465 l-531 1010 Z" /><glyph glyph-name="Z" unicode="z" d="M0 -20 l878 1327 l-869 0 l0 145 l1142 0 l-876 -1327 l857 0 l0 -145 l-1132 0 Z" /><glyph glyph-name="bracketleft" unicode="[" d="M0 -20 l0 1472 l138 0 l0 -2 l95 0 l0 -145 l-95 0 l0 -1180 l95 0 l0 -145 l-233 0 Z" /><glyph glyph-name="backslash" unicode="\" d="M0 1452 l160 0 l766 -1472 l-160 0 l-766 1472 Z" /><glyph glyph-name="bracketright" unicode="]" d="M0 -20 l0 145 l95 0 l0 1180 l-95 0 l0 145 l95 0 l0 2 l138 0 l0 -1472 l-233 0 Z" /><glyph glyph-name="asciicircum" unicode="^" d="M0 1006 l248 479 l247 -479 l-153 0 l-93 201 l-96 -201 l-153 0 Z" /><glyph glyph-name="underscore" unicode="_" d="M0 -20 l0 145 l777 0 l0 -145 l-777 0 Z" /><glyph glyph-name="grave" unicode="`" d="M0 1960 l167 0 l249 -414 l-159 0 l-257 414 Z" /><glyph glyph-name="a" unicode="a" d="M0 720 q2 314 223 535 q222 222 535 222 q313 0 535 -222 q222 -222 221 -535 l0 -740 l-144 0 l0 289 q-10 -17 -78 -84 q-222 -222 -535 -222 q-313 0 -535 222 q-222 222 -222 535 ZM323 1154 q-179 -181 -179 -434 q0 -253 179 -434 q181 -179 434 -179 q253 0 434 179 q179 181 179 434 q0 253 -179 434 q-181 179 -434 179 q-253 0 -434 -179 Z" /><glyph glyph-name="b" unicode="b" d="M1 720 l0 1043 l144 0 l0 -592 q11 17 78 84 q222 222 535 222 q313 0 535 -222 q222 -222 222 -535 q-1 -314 -223 -535 q-222 -222 -535 -222 q-313 0 -535 222 q-222 222 -221 535 ZM324 1154 q-179 -181 -179 -434 q0 -253 179 -434 q181 -179 434 -179 q253 0 434 179 q179 181 179 434 q0 253 -179 434 q-181 179 -434 179 q-253 0 -434 -179 Z" /><glyph glyph-name="c" unicode="c" d="M0 720 q2 314 223 535 q222 222 535 222 q313 0 535 -222 q149 -149 205 -366 l-150 0 q-46 151 -157 265 q-181 179 -434 179 q-253 0 -434 -179 q-179 -181 -179 -434 q0 -253 179 -434 q181 -179 434 -179 q253 0 434 179 q103 103 151 243 l150 0 q-59 -204 -200 -344 q-222 -222 -535 -222 q-313 0 -535 222 q-222 222 -222 535 Z" /><glyph glyph-name="d" unicode="d" d="M0 720 q0 313 222 535 q222 222 535 222 q313 0 535 -222 q68 -67 78 -84 l0 592 l144 0 l0 -1043 q1 -313 -221 -535 q-222 -222 -535 -222 q-313 0 -535 222 q-221 221 -223 535 ZM323 1154 q-179 -181 -179 -434 q0 -253 179 -434 q181 -179 434 -179 q253 0 434 179 q179 181 179 434 q0 253 -179 434 q-181 179 -434 179 q-253 0 -434 -179 Z" /><glyph glyph-name="e" unicode="e" d="M0 720 q2 314 223 535 q222 222 535 222 q313 0 535 -222 q149 -149 205 -363 l-1332 -2 q-22 -70 -22 -170 q0 -253 179 -434 q181 -179 434 -179 q253 0 434 179 q103 103 151 243 l150 0 q-59 -204 -200 -344 q-222 -222 -535 -222 q-313 0 -535 222 q-222 222 -222 535 ZM225 1029 l1064 0 q-27 52 -98 125 q-181 179 -434 179 q-253 0 -434 -179 q-71 -73 -98 -125 Z" /><glyph glyph-name="f" unicode="f" d="M0 1308 l0 147 l103 0 l0 186 q2 133 92 225 q91 94 223 94 q129 0 222 -94 q14 -14 33 -37 l-102 -101 q-23 28 -31 37 q-51 52 -122 52 q-73 0 -122 -52 q-51 -53 -51 -126 l0 -184 l118 0 l0 -147 l-118 0 l-1 -1330 l-141 0 l0 1330 l-103 0 Z" /><glyph glyph-name="g" unicode="g" d="M0 720 q2 314 223 535 q222 222 535 222 q300 0 493 -182 q14 24 14 56 q0 71 -70 184 l127 57 l37 -83 q37 -81 37 -166 q0 -47 -12 -96 q-10 -44 -23 -68 q153 -189 153 -452 q0 -4 0 -7 q0 -313 -222 -535 q-222 -222 -535 -222 q-313 0 -535 222 q-222 222 -222 535 ZM323 1154 q-179 -181 -179 -434 q0 -253 179 -434 q181 -179 434 -179 q253 0 434 179 q179 181 179 434 q0 253 -179 434 q-181 179 -434 179 q-253 0 -434 -179 ZM235 -808 q2 222 157 377 q157 157 378 157 q220 0 377 -157 q156 -154 156 -371 q0 -3 0 -6 q0 -221 -157 -377 q-156 -157 -377 -157 q-221 0 -377 157 q-157 156 -157 377 ZM236 -11 l72 43 l49 32 l33 -50 q21 -31 55 -59 q73 -55 167 -55 l287 0 q146 0 259 -88 q58 -47 87 -95 l30 -50 l-72 -44 l-49 -30 l-32 49 q-19 30 -56 58 q-71 55 -166 55 l-287 0 q-146 0 -258 88 q-61 48 -89 95 l-30 51 ZM491 -530 q-115 -115 -115 -278 q0 -163 115 -278 q115 -115 278 -115 q163 0 278 115 q115 115 115 278 q0 163 -115 278 q-115 115 -278 115 q-163 0 -278 -115 Z" /><glyph glyph-name="h" unicode="h" d="M0 -22 l0 1784 l140 0 l0 -586 q4 6 60 70 q196 222 474 222 q279 0 475 -223 q196 -220 199 -533 l0 -734 l-141 0 l0 734 q-3 250 -159 427 q-154 175 -373 175 q-218 0 -374 -174 q-155 -175 -160 -425 l0 -737 l-141 0 Z" /><glyph glyph-name="i" unicode="i" d="M0 -20 l0 1475 l145 0 l0 -1475 l-145 0 ZM0 1623 l0 137 l145 0 l0 -137 l-145 0 Z" /><glyph glyph-name="j" unicode="j" d="M1 -369 q245 1 406 172 q161 170 161 411 l0 1241 l147 0 l0 -1241 q0 -304 -202 -519 q-203 -216 -512 -217 l0 153 Z" /><glyph glyph-name="k" unicode="k" d="M0 -20 l0 1780 l144 0 l0 -1260 l896 954 l202 0 l-941 -1000 l504 -475 l-214 0 l-447 419 l0 -418 l-144 0 Z" /><glyph glyph-name="l" unicode="l" d="M0 -20 l0 1781 l145 0 l0 -1781 l-145 0 Z" /><glyph glyph-name="m" unicode="m" d="M0 -20 l0 939 q3 229 168 390 q166 161 395 161 q168 0 308 -90 q137 -89 186 -196 q49 107 186 196 q139 90 307 90 q231 0 397 -161 q164 -163 166 -393 l0 -936 l-140 0 l0 939 q-3 169 -126 291 q-124 121 -297 121 q-173 0 -297 -121 q-123 -122 -126 -291 l0 -939 l-141 0 l0 939 q-3 169 -126 291 q-122 121 -297 121 q-174 0 -296 -121 q-125 -122 -126 -291 l0 -939 l-141 0 Z" /><glyph glyph-name="n" unicode="n" d="M0 -22 l0 736 q5 313 200 532 q196 222 474 222 q279 0 475 -223 q196 -220 199 -533 l0 -734 l-141 0 l0 734 q-3 250 -159 427 q-154 175 -373 175 q-218 0 -374 -174 q-155 -175 -160 -425 l0 -737 l-141 0 Z" /><glyph glyph-name="o" unicode="o" d="M0 720 q2 314 223 535 q222 222 535 222 q313 0 535 -222 q221 -221 221 -532 q0 -316 -222 -538 q-222 -222 -535 -222 q-313 0 -535 222 q-222 222 -222 535 ZM323 1154 q-179 -181 -179 -434 q0 -253 179 -434 q181 -179 434 -179 q253 0 434 179 q179 181 179 434 q0 253 -179 434 q-181 179 -434 179 q-253 0 -434 -179 Z" /><glyph glyph-name="p" unicode="p" d="M1 -518 l0 1237 q-1 313 221 535 q222 222 535 222 q313 0 535 -222 q222 -221 223 -535 q0 -313 -222 -535 q-222 -222 -535 -222 q-313 0 -535 222 q-67 68 -78 84 l0 -786 l-144 0 ZM324 1153 q-179 -181 -179 -434 q0 -253 179 -434 q181 -179 434 -179 q253 0 434 179 q179 181 179 434 q0 253 -179 434 q-181 179 -434 179 q-253 0 -434 -179 Z" /><glyph glyph-name="q" unicode="q" d="M0 719 q2 313 223 535 q222 222 535 222 q313 0 535 -222 q222 -222 221 -535 l0 -1237 l-144 0 l0 786 q-10 -16 -78 -84 q-222 -222 -535 -222 q-313 0 -535 222 q-222 222 -222 535 ZM323 1153 q-179 -181 -179 -434 q0 -253 179 -434 q181 -179 434 -179 q253 0 434 179 q179 181 179 434 q0 253 -179 434 q-181 179 -434 179 q-253 0 -434 -179 Z" /><glyph glyph-name="r" unicode="r" d="M0 -22 l0 736 q5 313 200 532 q196 222 474 222 q69 0 128 -13 l0 -157 q-60 16 -127 16 q-218 0 -374 -174 q-155 -175 -160 -425 l0 -737 l-141 0 Z" /><glyph glyph-name="s" unicode="s" d="M0 497 l143 0 q5 -177 119 -287 q116 -111 275 -111 q163 0 277 114 q116 113 116 272 q0 162 -115 274 q-116 113 -265 121 q-147 7 -212 66 q-9 7 -17 15 q-89 87 -89 209 q0 3 0 5 q0 127 90 215 q89 89 214 89 q125 0 217 -89 l55 -55 l-123 -93 q-13 27 -34 47 q-49 47 -115 47 q-66 0 -113 -47 q-47 -47 -47 -114 q0 -65 47 -112 q36 -38 134 -44 q98 -6 173 -39 q153 -58 246 -192 q98 -137 98 -303 q0 -218 -158 -373 q-158 -156 -379 -156 q-220 0 -376 153 q-156 151 -161 388 Z" /><glyph glyph-name="t" unicode="t" d="M0 1311 l0 145 l337 0 l0 305 l145 0 l0 -305 l337 0 l0 -145 l-337 0 l0 -1331 l-146 0 l0 1331 l-336 0 Z" /><glyph glyph-name="u" unicode="u" d="M0 723 l0 734 l141 0 l0 -734 q3 -250 159 -427 q154 -175 373 -175 q218 0 374 174 q155 175 160 425 l0 737 l141 0 l0 -736 q-5 -313 -200 -532 q-196 -222 -474 -222 q-279 0 -475 223 q-196 220 -199 533 Z" /><glyph glyph-name="v" unicode="v" d="M0 1455 l162 0 l625 -1184 l631 1184 l158 0 l-697 -1327 l0 -1 l-92 -172 l-86 164 l-701 1336 Z" /><glyph glyph-name="w" unicode="w" d="M0 529 l0 925 l141 0 l0 -927 q2 -174 126 -295 q122 -121 296 -121 q175 0 297 121 q123 121 126 295 l0 927 l141 0 l0 -927 q3 -174 126 -295 q124 -121 297 -121 q173 0 297 121 q123 121 126 295 l0 927 l140 0 l0 -928 q-3 -229 -167 -393 q-164 -163 -396 -163 q-168 0 -307 91 q-137 89 -186 198 q-49 -109 -186 -198 q-139 -91 -308 -91 q-230 0 -396 164 q-165 164 -167 395 Z" /><glyph glyph-name="x" unicode="x" d="M0 29 l694 694 l-694 694 l103 102 l693 -694 l695 695 l102 -103 l-694 -694 l694 -694 l-102 -103 l-695 695 l-693 -694 l-103 102 Z" /><glyph glyph-name="y" unicode="y" d="M0 680 l0 776 l145 0 l-1 -775 q0 -5 0 -11 q0 -187 137 -376 q147 -164 342 -164 q185 0 331 146 q140 155 143 367 l1 814 l147 -1 l0 -1198 l0 -163 q-3 -286 -185 -491 q-183 -205 -438 -205 q-210 0 -376 145 q-168 142 -222 370 l-14 37 l151 0 l9 -20 q50 -169 174 -273 q124 -102 278 -102 q192 0 334 157 q140 159 144 382 l-2 131 q-43 -74 -179 -160 q-138 -84 -296 -84 q-257 0 -440 206 q-181 204 -183 492 Z" /><glyph glyph-name="z" unicode="z" d="M0 -20 l878 1327 l-869 0 l0 145 l1142 0 l-876 -1327 l857 0 l0 -145 l-1132 0 Z" /><glyph glyph-name="braceleft" unicode="{" d="M0 701 q130 84 130 146 l0 522 q-1 133 86.5 208 q87.5 75 263.5 93 l0 -156 q-191 -14 -199 -146 l0 -521 q1 -102 -67 -146 q68 -44 68 -145 l-1 -555 q20 -110 199 -110 l-1 -160 q-332 27 -349 264 l1 561 q0 62 -131 145 Z" /><glyph glyph-name="bar" unicode="|" d="M0 -443 l0 2175 l145 0 l0 -2175 l-145 0 Z" /><glyph glyph-name="braceright" unicode="}" d="M0 -109 q179 0 199 110 l-1 555 q0 101 68 145 q-68 44 -67 146 l0 521 q-8 132 -199 146 l0 156 q176 -18 263.5 -93 q87.5 -75 86.5 -208 l0 -522 q0 -62 130 -146 q-131 -83 -131 -145 l1 -561 q-17 -237 -349 -264 l-1 160 Z" /><glyph glyph-name="asciitilde" unicode="~" d="M0 574 q109 205 315 205 q161 0 283 -131 q86 -92 190 -92 q98 11 146 72 l166 1 q-111 -205 -317 -205 q-161 0 -283 132 q-87 91 -189 91 q-116 -2 -133 -73 l-178 0 Z" /><glyph glyph-name="nonbreakingspace" unicode=" " d="" /><glyph glyph-name="exclamdown" unicode="¡" d="M32 1585 q-32 34 -32 79 q0 45 32 77 q33 33 78 33 q46 0 78 -33 q33 -31 33 -77 q0 -46 -32.5 -78.5 q-32.5 -32.5 -78.5 -32.5 q-44 0 -78 32 ZM41 -22 l1 1479 l142 0 l-1 -1479 l-142 0 Z" /><glyph glyph-name="cent" unicode="¢" d="M98 729 q-98 98 -98 236 q0 138 98 236 q98 98 236 98 q53 0 77 -8 l73 144 l140 0 l-99 -194 l-1 0 l16 -14 q78 -61 118 -188 l-132 0 q-25 58 -61 88 l-190 -366 q9 -4 59 -4 q69 0 122 40 q41 29 68 88 l132 0 q-42 -126 -119 -185 q-89 -69 -203 -69 q-80 0 -117 18 l-69 -129 l-140 0 l103 195 l-11 12 q-1 1 -2 2 ZM125 965 q0 -77 47 -133 l178 341 l-16 0 q-87 0 -148 -61 q-61 -61 -61 -147 Z" /><glyph glyph-name="sterling" unicode="£" d="M25 607 l0 143 l154 0 q-3 5 -9 13.5 q-6 8.5 -8 11.5 l-33 49 q-7 11 -18.5 30.5 q-11.5 19.5 -12.5 21.5 q-35 60 -53 110 q-45 132 15 249 q72 140 230 200 q137 51 291 25 q147 -24 245 -110 q99 -87 121 -235 l-151 0 q-23 91 -92 140 q-63 43 -147 57 q-109 18 -206 -16 q-111 -37 -156 -128 q-31 -63 -6 -136 q19 -56 99 -174 l32 -48 q8 -13 31 -51 q4 -6 5 -9 l343 0 l0 -143 l-278 0 q30 -110 0 -214 q-28 -97 -81 -169 q41 7 212 -37 l30 -8 l33 -8 q25 -5 71 -15 q92 -18 198 15 l46 -142 q-141 -46 -274 -20 q-32 6 -76 17 l-34 9 l-32 8 q-125 32 -163 27 q-58 -7 -194 -110 l-108 104 l65 69 q111 126 163 301 q23 80 -15 170 q-1 1 -1 3 l-236 0 Z" /><glyph glyph-name="currency" unicode="¤" d="M0 1011 l102 101 l91 -91 q53 36 139 36 q90 0 149 -41 l96 96 l100 -101 l-96 -98 q35 -55 35 -140 q1 -85 -35 -140 l97 -97 l-101 -101 l-95 95 q-58 -40 -149 -40 q-86 0 -140 36 l-91 -91 l-101 101 l90 89 q-41 59 -41 149 q0 90 40 148 l-90 89 ZM203 778 q1 -56 41 -95 q39 -39 95 -39 q56 0 95 39 q39 41 38 95 q0 56 -39 96 q-38 39 -94 39 q-55 0 -96 -39 q-40 -40 -40 -96 Z" /><glyph glyph-name="yen" unicode="¥" d="M0 1454 l160 0 l442 -851 l443 851 l159 0 l-460 -878 l181 0 l0 -143 l-254 0 l5 14 l0 -91 l250 0 l0 -143 l-250 0 l-1 -233 l-145 0 l1 233 l-258 0 l0 143 l258 0 l0 86 l9 -9 l-268 0 l0 143 l189 0 l-461 878 Z" /><glyph glyph-name="brokenbar" unicode="¦" d="M1 -443 l0 953 l145 0 l0 -953 l-145 0 ZM1 779 l0 953 l145 0 l0 -953 l-145 0 Z" /><glyph glyph-name="section" unicode="§" d="M-3 734 l149 0 q1 -118 56 -171 q53 -52 131 -52 q77 0 130 52 q54 54 54 129 q0 76 -54 128 q-55 53 -132 53 q-75 0 -136 51 l-4 4 l-2 1 q-63 65 -63 148 q0 74 46 129 q-46 52 -46 129 q2 85 61 144 q60 60 144 60 q206 0 206 -204 l0 -47 l-149 0 l0 47 q0 54 -57 54 q-23 0 -39 -16 q-17 -17 -17 -38 q0 -23 17 -40 q13 -13 25 -14 l14 1 q104 0 160 -41 q193 -100 175 -297 q-9 -108 -22 -131 q22 -44 22 -121 q0 -136 -98 -234 q-97 -97 -237 -97 q-137 0 -235 96 q-98 95 -99 277 ZM275 1077 q0 -21 17 -38 q16 -16 39 -16 q63 0 120 -23 q32 -12 65 -33 q-6 63 -53 110 q-55 53 -130 53 l-14 0 q-13 -1 -27 -14 q-15 -15 -17 -39 Z" /><glyph glyph-name="dieresis" unicode="¨" d="M0 1655 q1 47 33.5 79 q32.5 32 78.5 32 q46 0 77 -33 q33 -32 32 -78 q0 -45 -32 -77.5 q-32 -32.5 -77 -32.5 q-45 0 -79 32 q-33 33 -33 78 ZM307 1655 q1 47 33.5 79 q32.5 32 78.5 32 q45 0 77 -33 q33 -32 32 -78 q0 -45 -32 -77.5 q-32 -32.5 -77 -32.5 q-45 0 -79 32 q-33 33 -33 78 Z" /><glyph glyph-name="copyright" unicode="©" d="M0 716 q0 307 217 524 q217 217 523 217 q307 0 524 -217 q217 -217 217 -524 q0 -306 -217 -523 q-217 -217 -524 -217 q-306 0 -523 217 q-217 217 -217 523 ZM133 720 q-1 -253 178 -434 q181 -179 434 -179 q255 0 434 179 q179 179 181 434 q-2 256 -180 434 q-178 180 -434 180 q-254 0 -434 -180 q-181 -179 -179 -434 ZM412 394 q-140 140 -140 338 q0 198 140 338 q142 140 338 140 q166 0 295 -102 q128 -101 180 -301 l-143 0 q-38 129 -128 197 q-91 68 -204 68 q-140 0 -241 -99 q-99 -101 -99 -241 q0 -140 98 -241 q100 -99 242 -99 q111 0 201 66 q88 64 130 191 l142 0 q-55 -198 -181 -295 q-128 -100 -292 -100 q-196 0 -338 140 Z" /><glyph glyph-name="ordfeminine" unicode="ª" d="" /><glyph glyph-name="guillemotleft" unicode="«" d="M0 738 l745 387 l-1 -160 q-128 -67 -270 -140 l-166 -86 q18 -9 75 -38.5 q57 -29.5 157 -81.5 q100 -52 205 -106 l-1 -161 l-744 386 ZM430 738 l745 387 l-1 -160 q-128 -67 -270 -140 l-166 -86 q18 -9 75 -38.5 q57 -29.5 157 -81.5 q100 -52 205 -106 l-1 -161 l-744 386 Z" /><glyph glyph-name="logicalnot" unicode="¬" d="" /><glyph glyph-name="uni00AD" unicode="­" d="M0 643 l0 145 l777 0 l0 -145 l-777 0 Z" /><glyph glyph-name="registered" unicode="®" d="M0 706 q0 307 217 524 q217 217 523 217 q307 0 524 -217 q217 -217 217 -524 q0 -306 -217 -523 q-217 -217 -524 -217 q-306 0 -523 217 q-217 217 -217 523 ZM133 710 q-1 -253 178 -434 q181 -179 434 -179 q255 0 434 179 q179 179 181 434 q-2 256 -180 434 q-178 180 -434 180 q-254 0 -434 -180 q-181 -179 -179 -434 ZM462 268 l0 899 l299 0 q87 0 173 -42 q174 -85 174 -293 q0 -176 -127 -264 q-78 -56 -115 -60 l250 -240 l-191 0 l-236 229 l-96 0 l0 -229 l-131 0 ZM593 627 l168 0 q59 0 114 28 q100 49 100 177 q0 127 -101 177 q-55 28 -113 28 l-168 0 l0 -410 Z" /><glyph glyph-name="macron" unicode="¯" d="M0 1310 l0 143 l975 0 l0 -143 l-975 0 Z" /><glyph glyph-name="degree" unicode="°" d="M0 1269 q0 78 55 133 q56 56 133 56 q78 0 134 -56 q56 -56 56 -133 q0 -78 -56 -134 q-55 -55 -133 -55 q-79 0 -134 55 q-55 55 -55 134 ZM150 1273 q0 -17 11 -28 q11 -11 28 -11 q16 0 27.5 11 q11.5 11 11.5 28 q0 16 -11.5 27.5 q-11.5 11.5 -27.5 11.5 q-17 0 -28 -11.5 q-11 -11.5 -11 -27.5 Z" /><glyph glyph-name="plusminus" unicode="±" d="" /><glyph glyph-name="twosuperior" unicode="²" d="" /><glyph glyph-name="threesuperior" unicode="³" d="" /><glyph glyph-name="acute" unicode="´" d="M0 1546 l249 414 l167 0 l-257 -414 l-159 0 Z" /><glyph glyph-name="mu" unicode="µ" d="M0 -231 l0 1686 l140 0 l0 -801 q22 -198 155 -350 q158 -176 376 -176 q219 0 375 175 q156 177 161 429 l0 722 l135 0 l0 -722 q-5 -311 -199 -531 q-197 -221 -472 -221 q-277 0 -473 222 q-51 57 -58 67 l0 -500 l-140 0 Z" /><glyph glyph-name="paragraph" unicode="¶" d="M110 967 q-110 83 -110 203 q0 120 108 202 q109 83 279 83 l0 -1 l273 0 l0 -130 l-74 0 l-1 -935 l-142 0 l1 935 l-57 0 l0 -439 l-1 0 l-1 -496 l-142 0 l1 511 q-69 15 -134 67 Z" /><glyph glyph-name="periodcentered" unicode="·" d="M0 695 q1 46 33 78.5 q32 32.5 78 32.5 q45 0 78 -33 q33 -32 32 -78 q0 -45 -33 -78 q-32 -32 -77 -32 q-45 0 -79 32 q-32 34 -32 78 Z" /><glyph glyph-name="cedilla" unicode="¸" d="M0 21 l146 0 l0 -61 q70 -14 126 -67 q58 -55 58 -128 q-2 -87 -80 -146 q-77 -58 -187 -58 q-23 0 -63 6 l0 141 l26 0 q52 0 88 19 q36 19 36 41 q0 22 -36 41 q-36 19 -88 19 l-26 0 l0 193 Z" /><glyph glyph-name="onesuperior" unicode="¹" d="" /><glyph glyph-name="ordmasculine" unicode="º" d="" /><glyph glyph-name="guillemotright" unicode="»" d="M0 513 q105 54 205 106 q100 52 157 81.5 q57 29.5 75 38.5 l-79 41 q-53 27 -87 45 q-142 73 -270 140 l-1 160 l745 -387 l-744 -386 l-1 161 ZM430 513 q105 54 205 106 q100 52 157 81.5 q57 29.5 75 38.5 l-79 41 q-53 27 -87 45 q-142 73 -270 140 l-1 160 l745 -387 l-744 -386 l-1 161 Z" /><glyph glyph-name="onequarter" unicode="¼" d="" /><glyph glyph-name="onehalf" unicode="½" d="" /><glyph glyph-name="threequarters" unicode="¾" d="" /><glyph glyph-name="questiondown" unicode="¿" d="M1 548 q0 224 157 390 q156 163 371 183 l0 320 l138 0 l-1 -455 l-48 0 q-206 0 -340 -128 q-136 -130 -136 -310 q0 -180 135 -310 q134 -128 327 -128 q192 0 326 127 q134 129 128 305 l147 1 q1 -234 -175 -404 q-178 -170 -426 -170 q-250 0 -426 169 q-177 168 -177 410 ZM492 1653 q0 43 31 74 q31 31 75 31 q44 0 75 -31 q31 -31 31 -74 q0 -44 -31 -75 q-31 -31 -75 -31 q-44 0 -75 31 q-31 31 -31 75 Z" /><glyph glyph-name="Agrave" unicode="à" d="M0 -22 l697 1327 l0 1 l92 172 l86 -164 l701 -1336 l-162 0 l-625 1184 l-631 -1184 l-158 0 ZM368 2001 l167 0 l249 -414 l-159 0 l-257 414 Z" /><glyph glyph-name="Aacute" unicode="á" d="M0 -22 l697 1327 l0 1 l92 172 l86 -164 l701 -1336 l-162 0 l-625 1184 l-631 -1184 l-158 0 ZM798 1588 l249 414 l167 0 l-257 -414 l-159 0 Z" /><glyph glyph-name="Acircumflex" unicode="â" d="M0 -22 l697 1327 l0 1 l92 172 l86 -164 l701 -1336 l-162 0 l-625 1184 l-631 -1184 l-158 0 ZM460 1587 l329 343 l327 -343 l-181 0 l-145 158 l-149 -158 l-181 0 Z" /><glyph glyph-name="Atilde" unicode="ã" d="M0 -22 l697 1327 l0 1 l92 172 l86 -164 l701 -1336 l-162 0 l-625 1184 l-631 -1184 l-158 0 ZM428 1593 q57 164 183 196 q109 28 212 -39 q59 -38 110 -25 q48 20 68 68 l147 0 q-56 -167 -183 -198 q-110 -30 -214 39 q-58 37 -109 24 q-51 -15 -51 -65 l-163 0 Z" /><glyph glyph-name="Adieresis" unicode="ä" d="M0 -22 l697 1327 l0 1 l92 172 l86 -164 l701 -1336 l-162 0 l-625 1184 l-631 -1184 l-158 0 ZM524 1694 q1 47 33.5 79 q32.5 32 78.5 32 q46 0 77 -33 q33 -32 32 -78 q0 -45 -32 -77.5 q-32 -32.5 -77 -32.5 q-45 0 -79 32 q-33 33 -33 78 ZM831 1694 q1 47 33.5 79 q32.5 32 78.5 32 q45 0 77 -33 q33 -32 32 -78 q0 -45 -32 -77.5 q-32 -32.5 -77 -32.5 q-45 0 -79 32 q-33 33 -33 78 Z" /><glyph glyph-name="Aring" unicode="å" d="M0 -22 l697 1327 l0 1 l86 160 q-53 2 -89 39 q-39 39 -39 94 q-1 56 37 94 q39 40 95 40 q55 0 94 -40 q40 -40 41 -94 q0 -55 -39 -94 q-38 -36 -88 -39 l80 -152 l701 -1336 l-162 0 l-625 1184 l-631 -1184 l-158 0 ZM754 1601 q-1 -14 9.5 -24 q10.5 -10 24.5 -10 q14 0 23.5 10.5 q9.5 10.5 11.5 26.5 q0 11 -11.5 21.5 q-11.5 10.5 -25.5 10.5 q-14 0 -23 -10 q-9 -10 -9 -25 Z" /><glyph glyph-name="AE" unicode="æ" d="M0 -22 l893 1477 l1127 0 l0 -147 l-987 0 l0 -1182 l987 0 l0 -146 l-1136 0 l0 1148 l-705 -1150 l-179 0 ZM1158 388 l0 145 l858 0 l0 -145 l-858 0 Z" /><glyph glyph-name="Ccedilla" unicode="ç" d="M5 719 q0 312 222 534 q222 222 535 222 q262 0 467 -162 q203 -157 271 -421 l-143 0 q-62 201 -223 323 q-163 124 -372 124 q-259 0 -440 -181 q-181 -181 -181 -439 q0 -259 181 -440 q181 -181 440 -181 q202 0 366 120 q160 117 226 312 l141 0 q-70 -256 -272 -411 q-187 -144 -421 -156 l0 -44 q71 -14 126 -67 q58 -55 58 -128 q-2 -87 -80 -146 q-77 -58 -187 -58 q-23 0 -63 6 l0 134 q49 -7 78 -7 q46 0 78.5 22.5 q32.5 22.5 32.5 54.5 q0 32 -32.5 54.5 q-32.5 22.5 -78.5 22.5 q-29 0 -78 -7 l0 169 q-247 32 -429 215 q-222 222 -222 535 Z" /><glyph glyph-name="Egrave" unicode="è" d="M0 -20 l0 1475 l1136 0 l0 -147 l-987 0 l0 -1182 l987 0 l0 -146 l-1136 0 ZM274 388 l0 145 l858 0 l0 -145 l-858 0 ZM302 2002 l167 0 l249 -414 l-159 0 l-257 414 Z" /><glyph glyph-name="Eacute" unicode="é" d="M0 -20 l0 1475 l1136 0 l0 -147 l-987 0 l0 -1182 l987 0 l0 -146 l-1136 0 ZM274 388 l0 145 l858 0 l0 -145 l-858 0 ZM418 1587 l249 414 l167 0 l-257 -414 l-159 0 Z" /><glyph glyph-name="Ecircumflex" unicode="ê" d="M0 -20 l0 1475 l1136 0 l0 -147 l-987 0 l0 -1182 l987 0 l0 -146 l-1136 0 ZM240 1588 l329 343 l327 -343 l-181 0 l-145 158 l-149 -158 l-181 0 ZM274 388 l0 145 l858 0 l0 -145 l-858 0 Z" /><glyph glyph-name="Edieresis" unicode="ë" d="M0 -20 l0 1475 l1136 0 l0 -147 l-987 0 l0 -1182 l987 0 l0 -146 l-1136 0 ZM274 388 l0 145 l858 0 l0 -145 l-858 0 ZM304 1699 q1 47 33.5 79 q32.5 32 78.5 32 q46 0 77 -33 q33 -32 32 -78 q0 -45 -32 -77.5 q-32 -32.5 -77 -32.5 q-45 0 -79 32 q-33 33 -33 78 ZM611 1699 q1 47 33.5 79 q32.5 32 78.5 32 q45 0 77 -33 q33 -32 32 -78 q0 -45 -32 -77.5 q-32 -32.5 -77 -32.5 q-45 0 -79 32 q-33 33 -33 78 Z" /><glyph glyph-name="Igrave" unicode="ì" d="M0 2000 l167 0 l249 -414 l-160 0 l-256 414 ZM205 -20 l0 1474 l145 0 l0 -1474 l-145 0 Z" /><glyph glyph-name="Iacute" unicode="í" d="M0 1586 l249 414 l167 0 l-257 -414 l-159 0 ZM3 -20 l0 1474 l145 0 l0 -1474 l-145 0 Z" /><glyph glyph-name="Icircumflex" unicode="î" d="M0 1586 l329 343 l326 -343 l-180 0 l-146 158 l-149 -158 l-180 0 ZM255 -20 l0 1474 l145 0 l0 -1474 l-145 0 Z" /><glyph glyph-name="Idieresis" unicode="ï" d="M0 1700 q2 46 34 79 q32 32 78 32 q46 0 78 -33 q33 -31 31 -78 q0 -45 -32 -77.5 q-32 -32.5 -77 -32.5 q-45 0 -79 32 q-33 33 -33 78 ZM192 -20 l0 1475 l145 0 l0 -1475 l-145 0 ZM307 1700 q1 46 34 79 q32 32 78 32 q47 0 78 -33 q33 -31 31 -78 q0 -45 -32 -77.5 q-32 -32.5 -77 -32.5 q-45 0 -79 32 q-33 33 -33 78 Z" /><glyph glyph-name="Eth" unicode="ð" d="M0 666 l0 142 l190 0 l0 644 l209 0 l359 -1 q139 0 232 -17 q217 -43 364 -180 q208 -193 208 -538 q0 -345 -208 -538 q-146 -136 -375 -180 q-124 -23 -222 -17 l-568 0 l0 685 l-189 0 ZM334 129 l429 0 q321 0 491 159 q160 148 160 428 q0 281 -160 429 q-120 111 -315 145 q-99 19 -175 13 l-430 0 l0 -495 l175 0 l0 -142 l-175 0 l0 -537 Z" /><glyph glyph-name="Ntilde" unicode="ñ" d="M0 -20 l0 1501 l139 -139 l1052 -1043 l0 1154 l145 0 l0 -1473 l-29 0 l-110 109 l-1052 1043 l0 -1152 l-145 0 ZM308 1595 q57 166 183 197 q108 28 212 -40 q58 -37 110 -24 q47 20 68 67 l147 0 q-56 -167 -183 -198 q-111 -29 -214 40 q-57 36 -109 23 q-51 -15 -51 -65 l-163 0 Z" /><glyph glyph-name="Ograve" unicode="ò" d="M0 720 q2 314 223 535 q222 222 535 222 q313 0 535 -222 q222 -222 221 -535 q0 -313 -222 -535 q-222 -222 -535 -222 q-313 0 -535 222 q-222 222 -222 535 ZM323 1154 q-179 -181 -179 -434 q0 -253 179 -434 q181 -179 434 -179 q253 0 434 179 q179 181 179 434 q0 253 -179 434 q-181 179 -434 179 q-253 0 -434 -179 ZM491 2036 l167 0 l249 -414 l-159 0 l-257 414 Z" /><glyph glyph-name="Oacute" unicode="ó" d="M0 720 q2 314 223 535 q222 222 535 222 q313 0 535 -222 q222 -222 221 -535 q0 -313 -222 -535 q-222 -222 -535 -222 q-313 0 -535 222 q-222 222 -222 535 ZM323 1154 q-179 -181 -179 -434 q0 -253 179 -434 q181 -179 434 -179 q253 0 434 179 q179 181 179 434 q0 253 -179 434 q-181 179 -434 179 q-253 0 -434 -179 ZM607 1624 l249 414 l167 0 l-257 -414 l-159 0 Z" /><glyph glyph-name="Ocircumflex" unicode="ô" d="M0 720 q2 314 223 535 q222 222 535 222 q313 0 535 -222 q222 -222 221 -535 q0 -313 -222 -535 q-222 -222 -535 -222 q-313 0 -535 222 q-222 222 -222 535 ZM323 1154 q-179 -181 -179 -434 q0 -253 179 -434 q181 -179 434 -179 q253 0 434 179 q179 181 179 434 q0 253 -179 434 q-181 179 -434 179 q-253 0 -434 -179 ZM429 1585 l329 343 l327 -343 l-181 0 l-145 158 l-149 -158 l-181 0 Z" /><glyph glyph-name="Otilde" unicode="õ" d="M0 720 q2 314 223 535 q222 222 535 222 q313 0 535 -222 q222 -222 221 -535 q0 -313 -222 -535 q-222 -222 -535 -222 q-313 0 -535 222 q-222 222 -222 535 ZM323 1154 q-179 -181 -179 -434 q0 -253 179 -434 q181 -179 434 -179 q253 0 434 179 q179 181 179 434 q0 253 -179 434 q-181 179 -434 179 q-253 0 -434 -179 ZM397 1592 q57 164 183 196 q109 28 212 -39 q59 -38 110 -25 q48 20 68 68 l147 0 q-55 -166 -183 -198 q-109 -30 -214 39 q-58 37 -109 24 q-51 -15 -51 -65 l-163 0 Z" /><glyph glyph-name="Odieresis" unicode="ö" d="M0 720 q2 314 223 535 q222 222 535 222 q313 0 535 -222 q222 -222 221 -535 q0 -313 -222 -535 q-222 -222 -535 -222 q-313 0 -535 222 q-222 222 -222 535 ZM323 1154 q-179 -181 -179 -434 q0 -253 179 -434 q181 -179 434 -179 q253 0 434 179 q179 181 179 434 q0 253 -179 434 q-181 179 -434 179 q-253 0 -434 -179 ZM493 1735 q1 47 33.5 79 q32.5 32 78.5 32 q45 0 77 -33 q33 -32 32 -78 q0 -45 -32 -77.5 q-32 -32.5 -77 -32.5 q-45 0 -79 32 q-33 33 -33 78 ZM800 1735 q1 47 33.5 79 q32.5 32 78.5 32 q45 0 77 -33 q33 -32 32 -78 q0 -45 -32 -77.5 q-32 -32.5 -77 -32.5 q-45 0 -79 32 q-33 33 -33 78 Z" /><glyph glyph-name="multiply" unicode="×" d="M0 371 l238 238 l-238 237 l101 101 l237 -238 l238 238 l101 -101 l-238 -237 l238 -238 l-101 -101 l-238 238 l-237 -238 l-101 101 Z" /><glyph glyph-name="Oslash" unicode="ø" d="M0 720 q2 314 223 535 q222 222 535 222 q158 0 275 -49 l76 146 l167 0 l-112 -214 q62 -38 129 -105 q222 -222 221 -535 q0 -313 -222 -535 q-222 -222 -535 -222 q-167 0 -290 55 l-76 -145 l-167 0 l113 216 q-53 34 -115 96 q-222 222 -222 535 ZM323 1154 q-179 -181 -179 -434 q0 -253 179 -434 q47 -46 81 -69 l562 1082 q-84 34 -209 34 q-253 0 -434 -179 ZM534 147 q90 -40 223 -40 q253 0 434 179 q179 181 179 434 q0 253 -179 434 q-53 52 -93 78 l-564 -1085 Z" /><glyph glyph-name="Ugrave" unicode="ù" d="M0 723 l0 734 l141 0 l0 -734 q3 -250 159 -427 q154 -175 373 -175 q218 0 374 174 q155 175 160 425 l0 737 l141 0 l0 -736 q-5 -313 -200 -532 q-196 -222 -474 -222 q-279 0 -475 223 q-196 220 -199 533 ZM396 1999 l168 0 l249 -414 l-160 0 l-257 414 Z" /><glyph glyph-name="Uacute" unicode="ú" d="M0 723 l0 734 l141 0 l0 -734 q3 -250 159 -427 q154 -175 373 -175 q218 0 374 174 q155 175 160 425 l0 737 l141 0 l0 -736 q-5 -313 -200 -532 q-196 -222 -474 -222 q-279 0 -475 223 q-196 220 -199 533 ZM535 1586 l249 414 l168 0 l-257 -414 l-160 0 Z" /><glyph glyph-name="Ucircumflex" unicode="û" d="M0 723 l0 734 l141 0 l0 -734 q3 -250 159 -427 q154 -175 373 -175 q218 0 374 174 q155 175 160 425 l0 737 l141 0 l0 -736 q-5 -313 -200 -532 q-196 -222 -474 -222 q-279 0 -475 223 q-196 220 -199 533 ZM346 1585 l329 343 l327 -343 l-181 0 l-145 158 l-149 -158 l-181 0 Z" /><glyph glyph-name="Udieresis" unicode="ü" d="M0 723 l0 734 l141 0 l0 -734 q3 -250 159 -427 q154 -175 373 -175 q218 0 374 174 q155 175 160 425 l0 737 l141 0 l0 -736 q-5 -313 -200 -532 q-196 -222 -474 -222 q-279 0 -475 223 q-196 220 -199 533 ZM410 1597 q1 47 33.5 79 q32.5 32 78.5 32 q46 0 77 -33 q33 -32 32 -78 q0 -45 -32 -77.5 q-32 -32.5 -77 -32.5 q-45 0 -79 32 q-33 33 -33 78 ZM717 1597 q1 47 33.5 79 q32.5 32 78.5 32 q45 0 77 -33 q33 -32 32 -78 q0 -45 -32 -77.5 q-32 -32.5 -77 -32.5 q-45 0 -79 32 q-33 33 -33 78 Z" /><glyph glyph-name="Yacute" unicode="ý" d="M0 1455 l160 0 l442 -851 l443 851 l159 0 l-528 -1010 l-1 -465 l-145 0 l1 465 l-531 1010 ZM463 1488 l249 414 l167 0 l-256 -414 l-160 0 Z" /><glyph glyph-name="Thorn" unicode="þ" d="M0 -18 l0 1473 l140 0 l-1 -202 l334 0 q140 0 281 -69 q281 -137 281 -469 q-1 -334 -280 -470 q-142 -68 -281 -68 l-328 0 l0 -197 l-145 0 l0 2 l-1 0 ZM145 1109 l1 -789 l328 0 q110 2 213 53 q199 97 199 342 q-2 245 -198 342 q-105 52 -215 52 l-328 0 Z" /><glyph glyph-name="germandbls" unicode="ß" d="M0 -15 l0 1413 q2 191 158 325 q154 135 372 135 q220 0 375 -136 q156 -136 156 -329 q0 -112 -59 -213 l-6 -9 l-1 -1 q-9 -14 -20 -30 l-3 -4 l-5 -7 q-18 -25 -18 -52 q0 -67 80 -99 q4 -1 14 -5 q33 -14 40 -17 l3 -2 l6 -3 q145 -68 227 -192 q85 -122 85 -267 q0 -219 -177 -372 q-175 -154 -425 -154 q-200 0 -361 106 q-162 106 -217 275 l-25 81 l139 0 l14 -42 q42 -127 167 -207 q126 -81 283 -81 q194 0 331 116 q137 116 137 278 q0 113 -74 211 q-75 99 -200 147 q-2 0 -4 1 q-2 1 -3.5 1.5 q-1.5 0.5 -4.5 1 q-3 0.5 -5 1.5 q-26 12 -43 23 l-1 0 l-11 6 q-109 75 -109 193 q0 38 16 77 l4 12 l2 2 q10 21 24 43 q4 3 7 7 q59 82 59 175 q0 138 -115 235 q-116 98 -282 98 q-163 0 -279 -98 q-116 -96 -116 -231 l0 -1412 l-135 0 Z" /><glyph glyph-name="agrave" unicode="à" d="M0 720 q2 314 223 535 q222 222 535 222 q313 0 535 -222 q222 -222 221 -535 l0 -740 l-144 0 l0 289 q-10 -17 -78 -84 q-222 -222 -535 -222 q-313 0 -535 222 q-222 222 -222 535 ZM323 1154 q-179 -181 -179 -434 q0 -253 179 -434 q181 -179 434 -179 q253 0 434 179 q179 181 179 434 q0 253 -179 434 q-181 179 -434 179 q-253 0 -434 -179 ZM479 2000 l167 0 l249 -414 l-159 0 l-257 414 Z" /><glyph glyph-name="aacute" unicode="á" d="M0 720 q2 314 223 535 q222 222 535 222 q313 0 535 -222 q222 -222 221 -535 l0 -740 l-144 0 l0 289 q-10 -17 -78 -84 q-222 -222 -535 -222 q-313 0 -535 222 q-222 222 -222 535 ZM323 1154 q-179 -181 -179 -434 q0 -253 179 -434 q181 -179 434 -179 q253 0 434 179 q179 181 179 434 q0 253 -179 434 q-181 179 -434 179 q-253 0 -434 -179 ZM618 1586 l249 414 l168 0 l-257 -414 l-160 0 Z" /><glyph glyph-name="acircumflex" unicode="â" d="M0 720 q2 314 223 535 q222 222 535 222 q313 0 535 -222 q222 -222 221 -535 l0 -740 l-144 0 l0 289 q-10 -17 -78 -84 q-222 -222 -535 -222 q-313 0 -535 222 q-222 222 -222 535 ZM323 1154 q-179 -181 -179 -434 q0 -253 179 -434 q181 -179 434 -179 q253 0 434 179 q179 181 179 434 q0 253 -179 434 q-181 179 -434 179 q-253 0 -434 -179 ZM429 1586 l329 343 l327 -343 l-181 0 l-145 158 l-149 -158 l-181 0 Z" /><glyph glyph-name="atilde" unicode="ã" d="M0 720 q2 314 223 535 q222 222 535 222 q313 0 535 -222 q222 -222 221 -535 l0 -740 l-144 0 l0 289 q-10 -17 -78 -84 q-222 -222 -535 -222 q-313 0 -535 222 q-222 222 -222 535 ZM323 1154 q-179 -181 -179 -434 q0 -253 179 -434 q181 -179 434 -179 q253 0 434 179 q179 181 179 434 q0 253 -179 434 q-181 179 -434 179 q-253 0 -434 -179 ZM397 1593 q57 164 183 196 q109 28 212 -39 q59 -38 110 -25 q48 20 68 68 l147 0 q-55 -167 -183 -198 q-109 -30 -214 39 q-58 37 -109 24 q-51 -15 -51 -65 l-163 0 Z" /><glyph glyph-name="adieresis" unicode="ä" d="M0 720 q2 314 223 535 q222 222 535 222 q313 0 535 -222 q222 -222 221 -535 l0 -740 l-144 0 l0 289 q-10 -17 -78 -84 q-222 -222 -535 -222 q-313 0 -535 222 q-222 222 -222 535 ZM323 1154 q-179 -181 -179 -434 q0 -253 179 -434 q181 -179 434 -179 q253 0 434 179 q179 181 179 434 q0 253 -179 434 q-181 179 -434 179 q-253 0 -434 -179 ZM493 1696 q1 46 33 78 q32 32 79 32 q45 0 77 -33 q33 -32 32 -78 q0 -45 -32 -77.5 q-32 -32.5 -77 -32.5 q-46 0 -79 32.5 q-33 32.5 -33 78.5 ZM800 1696 q2 46 33 78 q32 32 79 32 q45 0 77 -33 q33 -32 32 -78 q0 -45 -32 -77.5 q-32 -32.5 -77 -32.5 q-46 0 -79 32.5 q-33 32.5 -33 78.5 Z" /><glyph glyph-name="aring" unicode="å" d="M0 720 q2 314 223 535 q222 222 535 222 q313 0 535 -222 q222 -222 221 -535 l0 -740 l-144 0 l0 289 q-10 -17 -78 -84 q-222 -222 -535 -222 q-313 0 -535 222 q-222 222 -222 535 ZM323 1154 q-179 -181 -179 -434 q0 -253 179 -434 q181 -179 434 -179 q253 0 434 179 q179 181 179 434 q0 253 -179 434 q-181 179 -434 179 q-253 0 -434 -179 ZM624 1721 q-2 56 37 94 q39 40 95 40 q55 0 94 -40 q40 -40 41 -94 q0 -55 -40 -94 q-39 -39 -94 -39 q-56 0 -95 39 q-38 40 -38 94 ZM709 1723 q-1 -20 13 -33.5 q14 -13.5 34 -13.5 q21 0 34.5 14 q13.5 14 14.5 36 q0 18 -15.5 31.5 q-15.5 13.5 -36.5 13.5 q-18 0 -31 -13.5 q-13 -13.5 -13 -34.5 Z" /><glyph glyph-name="ae" unicode="æ" d="M0 720 q2 314 223 535 q222 222 535 222 q313 0 535 -222 q121 -121 159 -222 q34 90 150 206 q218 218 526 218 q256 0 459 -159 q201 -157 259 -383 l-1286 -1 q-41 -105 -41 -200 q8 -251 182 -427 q176 -175 427 -181 q197 6 355 122 q156 115 220 306 l146 0 q-71 -258 -268 -409 q-200 -155 -453 -155 q-308 0 -526 218 q-75 75 -87 96 l0 -302 l-139 0 l-1 292 q-13 -20 -83 -89 q-222 -222 -535 -222 q-313 0 -535 222 q-222 222 -222 535 ZM323 1154 q-179 -181 -179 -434 q0 -253 179 -434 q181 -179 434 -179 q253 0 434 179 q179 181 179 434 q0 253 -179 434 q-181 179 -434 179 q-253 0 -434 -179 ZM1620 1042 l1015 0 q-48 91 -159 170 q-155 110 -348 110 q-242 0 -411 -162 q-69 -64 -97 -118 Z" /><glyph glyph-name="ccedilla" unicode="ç" d="M219 189 q-219 221 -219 530 q0 309 219 529 q221 219 530 219 q260 0 462 -160 q201 -158 270 -428 l-158 0 q-60 198 -216 317 q-160 119 -358 119 q-249 0 -424 -174 q-173 -176 -173 -422 q0 -247 174 -423 q176 -174 423 -174 q195 0 352 115 q154 112 219 307 l157 0 q-73 -264 -272 -418 q-162 -126 -347 -149 l0 -17 q70 -14 126 -67 q58 -55 58 -128 q-2 -87 -80 -146 q-77 -58 -187 -58 q-23 0 -63 6 l0 141 l26 0 q69 0 106.5 18 q37.5 18 37.5 42 q0 22 -36 41 q-36 19 -88 19 l-46 0 l0 142 q-278 6 -493 219 Z" /><glyph glyph-name="egrave" unicode="è" d="M0 720 q2 314 223 535 q222 222 535 222 q313 0 535 -222 q149 -149 205 -363 l-1332 -2 q-22 -70 -22 -170 q0 -253 179 -434 q181 -179 434 -179 q253 0 434 179 q103 103 151 243 l150 0 q-59 -204 -200 -344 q-222 -222 -535 -222 q-313 0 -535 222 q-222 222 -222 535 ZM225 1029 l1064 0 q-27 52 -98 125 q-181 179 -434 179 q-253 0 -434 -179 q-71 -73 -98 -125 ZM472 2001 l167 0 l249 -414 l-159 0 l-257 414 Z" /><glyph glyph-name="eacute" unicode="é" d="M0 720 q2 314 223 535 q222 222 535 222 q313 0 535 -222 q149 -149 205 -363 l-1332 -2 q-22 -70 -22 -170 q0 -253 179 -434 q181 -179 434 -179 q253 0 434 179 q103 103 151 243 l150 0 q-59 -204 -200 -344 q-222 -222 -535 -222 q-313 0 -535 222 q-222 222 -222 535 ZM225 1029 l1064 0 q-27 52 -98 125 q-181 179 -434 179 q-253 0 -434 -179 q-71 -73 -98 -125 ZM610 1586 l249 414 l167 0 l-257 -414 l-159 0 Z" /><glyph glyph-name="ecircumflex" unicode="ê" d="M0 720 q2 314 223 535 q222 222 535 222 q313 0 535 -222 q149 -149 205 -363 l-1332 -2 q-22 -70 -22 -170 q0 -253 179 -434 q181 -179 434 -179 q253 0 434 179 q103 103 151 243 l150 0 q-59 -204 -200 -344 q-222 -222 -535 -222 q-313 0 -535 222 q-222 222 -222 535 ZM225 1029 l1064 0 q-27 52 -98 125 q-181 179 -434 179 q-253 0 -434 -179 q-71 -73 -98 -125 ZM421 1586 l329 343 l327 -343 l-181 0 l-145 158 l-149 -158 l-181 0 Z" /><glyph glyph-name="edieresis" unicode="ë" d="M0 720 q2 314 223 535 q222 222 535 222 q313 0 535 -222 q149 -149 205 -363 l-1332 -2 q-22 -70 -22 -170 q0 -253 179 -434 q181 -179 434 -179 q253 0 434 179 q103 103 151 243 l150 0 q-59 -204 -200 -344 q-222 -222 -535 -222 q-313 0 -535 222 q-222 222 -222 535 ZM225 1029 l1064 0 q-27 52 -98 125 q-181 179 -434 179 q-253 0 -434 -179 q-71 -73 -98 -125 ZM485 1695 q2 46 34.5 78.5 q32.5 32.5 77.5 32.5 q47 0 78 -33 q33 -31 31 -78 q0 -45 -32 -77.5 q-32 -32.5 -77 -32.5 q-45 0 -79 32 q-33 33 -33 78 ZM792 1695 q2 46 34.5 78.5 q32.5 32.5 77.5 32.5 q46 0 78 -33 q33 -31 31 -78 q0 -45 -32 -77.5 q-32 -32.5 -77 -32.5 q-45 0 -79 32 q-33 33 -33 78 Z" /><glyph glyph-name="igrave" unicode="ì" d="M0 1960 l167 0 l249 -414 l-160 0 l-256 414 ZM205 -20 l0 1474 l145 0 l0 -1474 l-145 0 Z" /><glyph glyph-name="iacute" unicode="í" d="M0 1546 l249 414 l167 0 l-257 -414 l-159 0 ZM3 -20 l0 1474 l145 0 l0 -1474 l-145 0 Z" /><glyph glyph-name="icircumflex" unicode="î" d="M0 1586 l329 343 l327 -343 l-181 0 l-145 158 l-149 -158 l-181 0 ZM255 -20 l0 1474 l145 0 l0 -1474 l-145 0 Z" /><glyph glyph-name="idieresis" unicode="ï" d="M0 1655 q2 46 34 79 q32 32 78 32 q46 0 78 -33 q33 -31 31 -78 q0 -45 -32 -77.5 q-32 -32.5 -77 -32.5 q-45 0 -79 32 q-33 33 -33 78 ZM192 -20 l0 1474 l145 0 l0 -1474 l-145 0 ZM307 1655 q1 46 34 79 q32 32 78 32 q47 0 78 -33 q33 -31 31 -78 q0 -45 -32 -77.5 q-32 -32.5 -77 -32.5 q-45 0 -79 32 q-33 33 -33 78 Z" /><glyph glyph-name="eth" unicode="ð" d="M62 866 q57 275 282 448 q222 169 403 159 q-41 20 -187 73 l-20 -83 l-131 31 l21 91 q-32 9 -102 24 l34 148 q52 -12 104 -26 l24 90 l130 -30 l-25 -98 q470 -154 717 -425 q142 -130 204 -316 q64 -189 25 -388 q-65 -306 -325 -478 q-258 -172 -565 -110 q-307 63 -478 323 q-173 261 -111 567 ZM215 835 q-49 -243 87 -450 q137 -207 380 -256 q243 -50 449 87 q207 136 255 379 q50 244 -86 450 q-136 206 -380 256 q-243 49 -448 -87 q-207 -136 -257 -379 Z" /><glyph glyph-name="ntilde" unicode="ñ" d="M0 -22 l0 736 q5 313 200 532 q196 222 474 222 q279 0 475 -223 q196 -220 199 -533 l0 -734 l-141 0 l0 734 q-3 250 -159 427 q-154 175 -373 175 q-218 0 -374 -174 q-155 -175 -160 -425 l0 -737 l-141 0 ZM314 1593 q57 164 183 196 q109 28 212 -39 q59 -38 110 -25 q48 20 68 68 l147 0 q-56 -167 -183 -198 q-109 -30 -214 39 q-58 37 -109 24 q-51 -15 -51 -65 l-163 0 Z" /><glyph glyph-name="ograve" unicode="ò" d="M0 720 q2 314 223 535 q222 222 535 222 q313 0 535 -222 q222 -222 221 -535 q0 -313 -222 -535 q-222 -222 -535 -222 q-313 0 -535 222 q-222 222 -222 535 ZM323 1154 q-179 -181 -179 -434 q0 -253 179 -434 q181 -179 434 -179 q253 0 434 179 q179 181 179 434 q0 253 -179 434 q-181 179 -434 179 q-253 0 -434 -179 ZM479 1960 l168 0 l249 -414 l-160 0 l-257 414 Z" /><glyph glyph-name="oacute" unicode="ó" d="M0 720 q2 314 223 535 q222 222 535 222 q313 0 535 -222 q222 -222 221 -535 q0 -313 -222 -535 q-222 -222 -535 -222 q-313 0 -535 222 q-222 222 -222 535 ZM323 1154 q-179 -181 -179 -434 q0 -253 179 -434 q181 -179 434 -179 q253 0 434 179 q179 181 179 434 q0 253 -179 434 q-181 179 -434 179 q-253 0 -434 -179 ZM618 1546 l249 414 l168 0 l-257 -414 l-160 0 Z" /><glyph glyph-name="ocircumflex" unicode="ô" d="M0 720 q2 314 223 535 q222 222 535 222 q313 0 535 -222 q222 -222 221 -535 q0 -313 -222 -535 q-222 -222 -535 -222 q-313 0 -535 222 q-222 222 -222 535 ZM323 1154 q-179 -181 -179 -434 q0 -253 179 -434 q181 -179 434 -179 q253 0 434 179 q179 181 179 434 q0 253 -179 434 q-181 179 -434 179 q-253 0 -434 -179 ZM429 1586 l329 343 l327 -343 l-181 0 l-145 158 l-149 -158 l-181 0 Z" /><glyph glyph-name="otilde" unicode="õ" d="M0 720 q2 314 223 535 q222 222 535 222 q313 0 535 -222 q222 -222 221 -535 q0 -313 -222 -535 q-222 -222 -535 -222 q-313 0 -535 222 q-222 222 -222 535 ZM323 1154 q-179 -181 -179 -434 q0 -253 179 -434 q181 -179 434 -179 q253 0 434 179 q179 181 179 434 q0 253 -179 434 q-181 179 -434 179 q-253 0 -434 -179 ZM397 1593 q57 164 183 196 q109 28 212 -39 q59 -38 110 -25 q48 20 68 68 l147 0 q-55 -167 -183 -198 q-109 -30 -214 39 q-58 37 -109 24 q-51 -15 -51 -65 l-163 0 Z" /><glyph glyph-name="odieresis" unicode="ö" d="M0 720 q2 314 223 535 q222 222 535 222 q313 0 535 -222 q222 -222 221 -535 q0 -313 -222 -535 q-222 -222 -535 -222 q-313 0 -535 222 q-222 222 -222 535 ZM323 1154 q-179 -181 -179 -434 q0 -253 179 -434 q181 -179 434 -179 q253 0 434 179 q179 181 179 434 q0 253 -179 434 q-181 179 -434 179 q-253 0 -434 -179 ZM493 1655 q1 47 33.5 79 q32.5 32 78.5 32 q45 0 77 -33 q33 -32 32 -78 q0 -45 -32 -77.5 q-32 -32.5 -77 -32.5 q-45 0 -79 32 q-33 33 -33 78 ZM800 1655 q1 47 33.5 79 q32.5 32 78.5 32 q45 0 77 -33 q33 -32 32 -78 q0 -45 -32 -77.5 q-32 -32.5 -77 -32.5 q-45 0 -79 32 q-33 33 -33 78 Z" /><glyph glyph-name="divide" unicode="÷" d="M0 537 l0 143 l815 0 l0 -143 l-815 0 ZM305 804 q-1 46 32 78 q33 33 79 33 q46 0 77 -33 q31 -32 33 -78 q0 -45 -33 -78 q-32 -32 -77 -32 q-45 0 -79 32 q-32 34 -32 78 ZM308 408 q-1 46 32 78 q33 33 79 33 q45 0 77 -33 q32 -32 33 -78 q0 -45 -33 -78 q-32 -32 -77 -32 q-45 0 -79 32 q-32 34 -32 78 Z" /><glyph glyph-name="oslash" unicode="ø" d="M0 720 q2 314 223 535 q222 222 535 222 q158 0 275 -49 l76 146 l167 0 l-112 -214 q62 -38 129 -105 q222 -222 221 -535 q0 -313 -222 -535 q-222 -222 -535 -222 q-167 0 -290 55 l-76 -145 l-167 0 l113 216 q-53 34 -115 96 q-222 222 -222 535 ZM323 1154 q-179 -181 -179 -434 q0 -253 179 -434 q47 -46 81 -69 l562 1082 q-84 34 -209 34 q-253 0 -434 -179 ZM534 147 q90 -40 223 -40 q253 0 434 179 q179 181 179 434 q0 253 -179 434 q-53 52 -93 78 l-564 -1085 Z" /><glyph glyph-name="ugrave" unicode="ù" d="M0 723 l0 734 l141 0 l0 -734 q3 -250 159 -427 q154 -175 373 -175 q218 0 374 174 q155 175 160 425 l0 737 l141 0 l0 -736 q-5 -313 -200 -532 q-196 -222 -474 -222 q-279 0 -475 223 q-196 220 -199 533 ZM396 1960 l168 0 l249 -414 l-160 0 l-257 414 Z" /><glyph glyph-name="uacute" unicode="ú" d="M0 723 l0 734 l141 0 l0 -734 q3 -250 159 -427 q154 -175 373 -175 q218 0 374 174 q155 175 160 425 l0 737 l141 0 l0 -736 q-5 -313 -200 -532 q-196 -222 -474 -222 q-279 0 -475 223 q-196 220 -199 533 ZM535 1546 l249 414 l168 0 l-257 -414 l-160 0 Z" /><glyph glyph-name="ucircumflex" unicode="û" d="M0 723 l0 734 l141 0 l0 -734 q3 -250 159 -427 q154 -175 373 -175 q218 0 374 174 q155 175 160 425 l0 737 l141 0 l0 -736 q-5 -313 -200 -532 q-196 -222 -474 -222 q-279 0 -475 223 q-196 220 -199 533 ZM346 1586 l329 343 l327 -343 l-181 0 l-145 158 l-149 -158 l-181 0 Z" /><glyph glyph-name="udieresis" unicode="ü" d="M0 723 l0 734 l141 0 l0 -734 q3 -250 159 -427 q154 -175 373 -175 q218 0 374 174 q155 175 160 425 l0 737 l141 0 l0 -736 q-5 -313 -200 -532 q-196 -222 -474 -222 q-279 0 -475 223 q-196 220 -199 533 ZM410 1695 q1 47 33.5 79 q32.5 32 78.5 32 q46 0 77 -33 q33 -32 32 -78 q0 -45 -32 -77.5 q-32 -32.5 -77 -32.5 q-45 0 -79 32 q-33 33 -33 78 ZM717 1695 q1 47 33.5 79 q32.5 32 78.5 32 q45 0 77 -33 q33 -32 32 -78 q0 -45 -32 -77.5 q-32 -32.5 -77 -32.5 q-45 0 -79 32 q-33 33 -33 78 Z" /><glyph glyph-name="yacute" unicode="ý" d="M0 680 l0 776 l145 0 l-1 -775 q-4 -193 137 -387 q147 -164 342 -164 q185 0 331 146 q140 155 143 367 l1 814 l147 -1 l0 -1198 l0 -163 q-3 -286 -185 -491 q-183 -205 -438 -205 q-210 0 -376 145 q-168 142 -222 370 l-14 37 l151 0 l9 -20 q50 -169 174 -273 q124 -102 278 -102 q192 0 334 157 q140 159 144 382 l-2 131 q-43 -74 -179 -160 q-138 -84 -296 -84 q-257 0 -440 206 q-181 204 -183 492 ZM484 1586 l249 414 l167 0 l-257 -414 l-159 0 Z" /><glyph glyph-name="thorn" unicode="þ" d="M0 -352 l0 2081 l1 0 l0 9 l139 0 l-1 -574 q10 17 83 91 q222 222 535 222 q313 0 535 -222 q222 -221 223 -535 q0 -313 -222 -535 q-222 -222 -535 -222 q-313 0 -535 222 q-73 73 -86 94 l0 -631 l-137 0 ZM324 1154 q-179 -181 -179 -434 q0 -253 179 -434 q181 -179 434 -179 q253 0 434 179 q179 181 179 434 q0 253 -179 434 q-181 179 -434 179 q-253 0 -434 -179 Z" /><glyph glyph-name="ydieresis" unicode="ÿ" d="M0 680 l0 776 l145 0 l-1 -775 q-4 -193 137 -387 q147 -164 342 -164 q185 0 331 146 q140 155 143 367 l1 814 l147 -1 l0 -1198 l0 -163 q-3 -286 -185 -491 q-183 -205 -438 -205 q-210 0 -376 145 q-168 142 -222 370 l-14 37 l151 0 l9 -20 q50 -169 174 -273 q124 -102 278 -102 q192 0 334 157 q140 159 144 382 l-2 131 q-43 -74 -179 -160 q-138 -84 -296 -84 q-257 0 -440 206 q-181 204 -183 492 ZM358 1695 q2 46 34 79 q32 32 78 32 q46 0 78 -33 q33 -31 31 -78 q0 -45 -32 -77.5 q-32 -32.5 -77 -32.5 q-45 0 -79 32 q-33 33 -33 78 ZM665 1695 q1 47 34 79 q32 32 78 32 q47 0 78 -33 q33 -31 31 -78 q0 -45 -32 -77.5 q-32 -32.5 -77 -32.5 q-45 0 -79 32 q-33 33 -33 78 Z" /><glyph glyph-name="OE" unicode="&#x152;" d="M1 720 q-1 315 223 539 q223 223 539 223 l-11 0 l0 1 l1076 0 l0 -154 l-602 0 q10 -6 76 -70 q221 -223 223 -539 q-2 -105 -17 -168 l320 0 l0 -154 l-372 0 q-51 -113 -154 -217 q-62 -62 -73 -69 l599 0 l-1 -154 l-1069 0 q-311 2 -534 223 q-223 223 -223 539 ZM149 720 q0 -255 179 -434 q180 -180 435 -180 q255 0 433 180 q181 178 181 434 q0 256 -180 434 q-179 180 -434 180 q-255 0 -434 -180 q-180 -178 -180 -434 Z" /><glyph glyph-name="oe" unicode="&#x153;" d="M0 720 q2 314 223 535 q222 222 535 222 q313 0 535 -222 q112 -112 150 -205 q36 85 145 194 q218 218 526 218 q256 0 459 -159 q201 -157 259 -383 l-1286 -1 q-24 -57 -35 -127 q3 -34 3 -72 q0 -40 -3 -74 q25 -202 176 -354 q176 -175 427 -181 q197 6 355 122 q156 115 220 306 l146 0 q-71 -258 -268 -409 q-200 -155 -453 -155 q-308 0 -526 218 q-110 110 -146 197 q-38 -93 -150 -205 q-222 -222 -535 -222 q-313 0 -535 222 q-222 222 -222 535 ZM323 1154 q-179 -181 -179 -434 q0 -253 179 -434 q181 -179 434 -179 q253 0 434 179 q179 181 179 434 q0 253 -179 434 q-181 179 -434 179 q-253 0 -434 -179 ZM1606 1047 l1015 0 q-48 91 -159 170 q-155 110 -348 110 q-242 0 -411 -162 q-69 -64 -97 -118 Z" /><glyph glyph-name="circumflex" unicode="&#x2c6;" d="M0 1586 l329 343 l327 -343 l-181 0 l-145 158 l-149 -158 l-181 0 Z" /><glyph glyph-name="tilde" unicode="&#x2dc;" d="M0 1593 q57 164 183 196 q109 28 212 -39 q59 -38 110 -25 q48 20 68 68 l147 0 q-56 -167 -183 -198 q-110 -30 -214 39 q-58 37 -109 24 q-51 -15 -51 -65 l-163 0 Z" /><glyph glyph-name="uni2000" unicode="&#x2000;" d="" /><glyph glyph-name="uni2001" unicode="&#x2001;" d="" /><glyph glyph-name="uni2002" unicode="&#x2002;" d="" /><glyph glyph-name="uni2003" unicode="&#x2003;" d="" /><glyph glyph-name="uni2004" unicode="&#x2004;" d="" /><glyph glyph-name="uni2005" unicode="&#x2005;" d="" /><glyph glyph-name="uni2006" unicode="&#x2006;" d="" /><glyph glyph-name="uni2007" unicode="&#x2007;" d="" /><glyph glyph-name="uni2008" unicode="&#x2008;" d="" /><glyph glyph-name="uni2009" unicode="&#x2009;" d="" /><glyph glyph-name="uni200A" unicode="&#x200a;" d="" /><glyph glyph-name="uni2010" unicode="&#x2010;" d="M0 643 l0 145 l777 0 l0 -145 l-777 0 Z" /><glyph glyph-name="uni2011" unicode="&#x2011;" d="M0 643 l0 145 l777 0 l0 -145 l-777 0 Z" /><glyph glyph-name="figuredash" unicode="&#x2012;" d="M0 643 l0 145 l777 0 l0 -145 l-777 0 Z" /><glyph glyph-name="endash" unicode="&#x2013;" d="" /><glyph glyph-name="emdash" unicode="&#x2014;" d="" /><glyph glyph-name="quoteleft" unicode="&#x2018;" d="M0 1456 l167 0 l178 -296 l-159 0 l-186 296 Z" /><glyph glyph-name="quoteright" unicode="&#x2019;" d="M0 1160 l178 296 l167 0 l-186 -296 l-159 0 Z" /><glyph glyph-name="quotesinglbase" unicode="&#x201a;" d="M0 -118 l178 296 l167 0 l-186 -296 l-159 0 Z" /><glyph glyph-name="quotedblleft" unicode="&#x201c;" d="M0 971 l0 482 l149 0 l-1 -482 l-148 0 ZM215 971 l0 482 l149 0 l-1 -482 l-148 0 Z" /><glyph glyph-name="quotedblright" unicode="&#x201d;" d="M0 971 l0 482 l149 0 l-1 -482 l-148 0 ZM215 971 l0 482 l149 0 l-1 -482 l-148 0 Z" /><glyph glyph-name="quotedblbase" unicode="&#x201e;" d="M0 174 l149 0 l-1 -482 l-148 0 l0 482 ZM215 174 l149 0 l-1 -482 l-148 0 l0 482 Z" /><glyph glyph-name="bullet" unicode="&#x2022;" d="M0 758 q0 69 49 118 q50 50 119 50 q68 0 118 -50 q50 -50 50 -118 q0 -69 -50 -119 q-49 -49 -119 -49 q-69 0 -118 49 q-49 49 -49 119 Z" /><glyph glyph-name="ellipsis" unicode="&#x2026;" d="" /><glyph glyph-name="uni202F" unicode="&#x202f;" d="" /><glyph glyph-name="guilsinglleft" unicode="&#x2039;" d="M0 738 l745 387 l-1 -160 q-128 -67 -270 -140 l-166 -86 q18 -9 75 -38.5 q57 -29.5 157 -81.5 q100 -52 205 -106 l-1 -161 l-744 386 Z" /><glyph glyph-name="guilsinglright" unicode="&#x203a;" d="M0 352 l1 161 q366 190 437 226 q3 -2 -1 0 q-4 2 -18.5 9.5 q-14.5 7.5 -32.5 17 q-18 9.5 -51 26 q-33 16.5 -65 33.5 l-270 140 l0 160 l747 -387 l-747 -386 Z" /><glyph glyph-name="uni205F" unicode="&#x205f;" d="" /><glyph glyph-name="Euro" unicode="&#x20ac;" d="M0 508 l43 142 l265 0 q-3 22 -3 69 q0 35 2 59 l-307 0 l42 142 l288 0 q45 176 194 328 q220 219 531 219 q259 0 461 -160 q203 -158 270 -428 l-158 0 q-60 198 -216 317 q-158 119 -357 119 q-249 0 -424 -174 q-107 -109 -142 -221 l350 0 l-42 -142 l-337 0 q-3 -20 -3 -59 q0 -46 4 -69 l379 0 l-43 -142 l-305 0 q34 -106 139 -212 q175 -174 423 -174 q195 0 352 115 q154 112 219 307 l157 0 q-73 -264 -272 -418 q-201 -156 -456 -156 q-310 0 -529 219 q-146 148 -191 319 l-334 0 Z" /><glyph glyph-name="trademark" unicode="&#x2122;" d="M0 1339 l0 97 l532 0 l0 -97 l-218 0 l0 -640 l-97 0 l0 640 l-217 0 ZM594 709 l0 742 l314 -586 l310 585 l0 -741 l-90 0 l1 398 l-218 -418 l-228 416 l0 -396 l-89 0 Z" /><glyph glyph-name="uni25FC" unicode="&#x25fc;" d="M0 0 l0 1520 l1520 0 l0 -1520 l-1520 0 Z" /><glyph glyph-name="fi" unicode="&#xfb01;" d="M0 1308 l0 147 l104 0 l0 186 q2 132 93 225 q93 94 225 94 q132 0 226 -94 q63 -72 65 -235 l-136 0 q7 83 -32 135 q-49 51 -123 51 q-72 0 -123 -52 q-52 -52 -52 -126 l0 -184 l469 0 l0 -1475 l-142 0 l0 1328 l-327 0 l-1 -1330 l-142 0 l0 1330 l-104 0 Z" /><glyph glyph-name="fl" unicode="&#xfb02;" d="M0 1308 l0 147 l103 0 l0 186 q2 133 92 225 q91 94 222 94 q129 0 222 -94 q12 -12 26 -29 l0 -1857 l-139 0 l0 1798 q-44 39 -109 39 q-73 0 -122 -52 q-51 -53 -51 -126 l0 -184 l119 0 l0 -147 l-119 0 l0 -1330 l-141 0 l0 1330 l-103 0 Z" /><glyph glyph-name="uniFB03" unicode="&#xfb03;" d="M0 1308 l0 147 l103 0 l0 186 q2 133 92 225 q91 94 223 94 q111 0 184 -59 q73 59 184 59 q129 0 222 -94 q14 -14 33 -37 l-102 -101 q-23 28 -31 37 q-51 52 -122 52 q-73 0 -122 -52 q-51 -53 -51 -126 l0 -184 l414 0 l0 -1475 l-141 0 l0 1328 l-273 0 l-1 -1330 l-141 0 l0 1330 l-226 0 l-1 -1330 l-141 0 l0 1330 l-103 0 ZM245 1455 l226 0 l0 186 q2 94 38 151 q-31 25 -91 25 q-73 0 -122 -52 q-51 -53 -51 -126 l0 -184 Z" /><glyph glyph-name="uniFB04" unicode="&#xfb04;" d="M0 1308 l0 147 l102 0 l0 186 q2 133 92 225 q91 94 221 94 q111 0 182 -59 q71 59 182 59 q130 0 221 -94 q10 -10 24 -27 l2 -1857 l-139 0 l0 1326 l-279 0 l-1 -1330 l-140 0 l0 1330 l-224 0 l-1 -1330 l-140 0 l0 1330 l-102 0 ZM243 1455 l224 0 l0 186 q2 94 38 151 q-31 25 -90 25 q-72 0 -121 -52 q-51 -53 -51 -126 l0 -184 ZM608 1455 l279 0 l0 323 q-42 39 -108 39 q-71 0 -120 -52 q-51 -53 -51 -126 l0 -184 Z" /></font>
</defs>
</svg>
